<svg xmlns="http://www.w3.org/2000/svg" xmlns:xlink="http://www.w3.org/1999/xlink" width="500" zoomAndPan="magnify" viewBox="0 0 375 374.999991" height="500" preserveAspectRatio="xMidYMid meet" version="1.0"><defs><clipPath id="63bb7a491c"><path d="M 87 80 L 316.316406 80 L 316.316406 315.945312 L 87 315.945312 Z M 87 80 " clip-rule="nonzero"/></clipPath><clipPath id="566123f13a"><path d="M 65 58.695312 L 109 58.695312 L 109 157 L 65 157 Z M 65 58.695312 " clip-rule="nonzero"/></clipPath><clipPath id="db001931ec"><path d="M 166.410156 198 L 172 198 L 172 204 L 166.410156 204 Z M 166.410156 198 " clip-rule="nonzero"/></clipPath><clipPath id="1eb07fc5c0"><path d="M 177 181.273438 L 258.660156 181.273438 L 258.660156 311 L 177 311 Z M 177 181.273438 " clip-rule="nonzero"/></clipPath></defs><g clip-path="url(#63bb7a491c)"><path fill="#67a516" d="M 211.175781 310.8125 C 157.867188 310.8125 113.292969 273.398438 102.28125 223.394531 C 100.546875 215.492188 99.675781 207.496094 99.675781 199.40625 L 99.675781 199.304688 C 99.667969 188.863281 101.097656 178.621094 103.96875 168.582031 C 103.96875 168.582031 116.230469 130.355469 165.371094 108.75 C 165.371094 108.75 123.613281 136.816406 112.222656 168.746094 C 138.644531 168.125 184.460938 156.1875 213.515625 87.824219 C 214.445312 85.640625 215.355469 83.402344 216.25 81.101562 C 212.550781 80.75 208.800781 80.574219 205.007812 80.570312 C 140.015625 80.570312 87.328125 133.261719 87.328125 198.253906 C 87.328125 201.527344 87.460938 204.765625 87.726562 207.976562 C 88.144531 213.109375 88.898438 218.191406 89.984375 223.226562 C 101.433594 276.21875 148.585938 315.9375 205.007812 315.9375 C 256.585938 315.9375 300.414062 282.75 316.304688 236.566406 C 300.964844 279.828125 259.6875 310.8125 211.175781 310.8125 Z M 211.175781 310.8125 " fill-opacity="1" fill-rule="nonzero"/></g><path fill="#67a516" d="M 146.132812 273.179688 C 163.625 250.703125 139.824219 220.996094 139.824219 220.996094 C 109.066406 253.25 138.371094 281.558594 138.371094 281.558594 C 138.371094 281.558594 130.542969 261.425781 134.613281 241.824219 C 134.613281 241.824219 135.644531 268.347656 140.359375 279.046875 C 144.367188 288.359375 150.207031 297.75 156.375 297.351562 C 156.375 297.351562 144.039062 282.007812 146.132812 273.183594 Z M 146.132812 273.179688 " fill-opacity="1" fill-rule="nonzero"/><g clip-path="url(#566123f13a)"><path fill="#67a516" d="M 92.6875 122.449219 C 58.339844 107.867188 66.636719 58.691406 66.636719 58.691406 C 122.410156 76.003906 106.910156 127.097656 106.910156 127.097656 C 106.910156 127.097656 103.035156 99.058594 85.882812 79.210938 C 85.882812 79.210938 101.613281 110.234375 103.039062 125.484375 C 104.386719 138.695312 103.6875 153.171875 96.375 156.652344 C 96.375 156.652344 100.707031 131.222656 92.691406 122.453125 Z M 92.6875 122.449219 " fill-opacity="1" fill-rule="nonzero"/></g><path fill="#67a516" d="M 170.660156 204.6875 C 170.410156 205.332031 170.335938 206.019531 169.953125 206.355469 C 169.589844 206.671875 168.902344 206.621094 168.117188 206.777344 C 169.519531 207.363281 169.898438 208.277344 169.386719 209.632812 C 170.429688 208.441406 171.40625 208.621094 172.472656 209.542969 C 171.726562 208.199219 172.195312 207.273438 173.308594 206.574219 C 172.59375 206.480469 171.886719 206.574219 171.460938 206.273438 C 171.050781 205.984375 170.9375 205.277344 170.660156 204.6875 Z M 170.660156 204.6875 " fill-opacity="1" fill-rule="nonzero"/><g clip-path="url(#db001931ec)"><path fill="#67a516" d="M 170.472656 203.789062 C 170.058594 202.019531 170.058594 202.019531 171.210938 200.71875 C 170.597656 200.640625 169.917969 200.742188 169.519531 200.457031 C 169.125 200.175781 169.011719 199.5 168.738281 198.914062 C 168.503906 199.535156 168.445312 200.214844 168.078125 200.523438 C 167.710938 200.835938 167.035156 200.78125 166.433594 200.894531 C 166.863281 201.285156 167.445312 201.582031 167.609375 202.035156 C 167.773438 202.492188 167.523438 203.097656 167.457031 203.640625 C 168.492188 202.304688 169.457031 202.941406 170.472656 203.789062 Z M 170.472656 203.789062 " fill-opacity="1" fill-rule="nonzero"/></g><g clip-path="url(#1eb07fc5c0)"><path fill="#67a516" d="M 257.898438 204.1875 C 258.3125 202.03125 257.464844 200.210938 255.734375 199.828125 C 255 199.664062 254.140625 199.628906 253.4375 199.84375 C 251.351562 200.480469 249.21875 201.082031 247.269531 202.039062 C 240.269531 205.484375 234.335938 210.390625 228.910156 215.945312 C 225.558594 219.382812 222.515625 223.0625 220.03125 227.164062 C 217.226562 230.199219 216.609375 226.398438 216.609375 226.398438 C 216.601562 226.089844 216.585938 225.78125 216.5625 225.472656 C 216.402344 223.484375 215.699219 221.648438 214.675781 219.929688 C 214.023438 218.832031 213.570312 217.65625 213.691406 216.308594 C 216.691406 215.757812 218.21875 213.652344 219.488281 211.210938 C 219.171875 212.027344 218.78125 212.804688 218.304688 213.519531 C 217.796875 214.277344 217.140625 214.941406 216.664062 215.714844 C 215.863281 217.015625 215.96875 218.464844 216.824219 219.347656 C 217.722656 220.277344 219.558594 220.527344 220.777344 219.882812 C 221.875 219.304688 222.25 218.238281 221.804688 217.386719 C 221.40625 217.667969 221.027344 218.09375 220.566406 218.222656 C 219.886719 218.410156 219.25 218.148438 218.847656 217.503906 C 218.460938 216.886719 218.667969 216.3125 219.054688 215.808594 C 219.8125 214.832031 220.421875 213.808594 220.667969 212.566406 C 221.027344 210.761719 220.929688 208.976562 220.558594 207.195312 C 220.394531 206.402344 220.164062 205.617188 219.964844 204.828125 C 220.597656 205.859375 221.070312 206.953125 221.664062 207.976562 C 222.519531 209.441406 223.59375 210.695312 225.375 211.089844 C 225.539062 211.125 225.742188 211.277344 225.800781 211.421875 C 226.300781 212.664062 225.683594 213.761719 224.367188 214.082031 C 224.730469 214.207031 225.121094 214.332031 225.476562 214.261719 C 226.90625 213.984375 227.621094 212.484375 227.265625 210.75 C 227.191406 210.398438 227.28125 209.953125 227.445312 209.625 C 227.804688 208.90625 227.914062 208.25 227.484375 207.695312 C 227.21875 208.085938 226.992188 208.761719 226.707031 208.785156 C 226.066406 208.847656 225.277344 208.746094 224.789062 208.382812 C 224.40625 208.109375 224.203125 207.308594 224.269531 206.785156 C 224.351562 206.128906 224.753906 205.503906 225.074219 204.894531 C 225.839844 203.4375 226.148438 201.945312 225.671875 200.320312 C 225.5625 199.941406 225.589844 199.449219 225.730469 199.078125 C 226.644531 196.714844 225.316406 194.355469 222.816406 194.105469 C 222.054688 194.027344 221.585938 193.75 221.097656 193.179688 C 219.648438 191.480469 217.765625 190.804688 215.570312 191.292969 C 213.601562 191.730469 212.300781 192.996094 211.921875 194.96875 C 211.71875 196.019531 211.886719 197.140625 211.886719 198.238281 C 211.867188 198.238281 211.8125 198.261719 211.761719 198.253906 C 211.488281 198.222656 211.214844 198.171875 210.941406 198.144531 C 208.882812 197.929688 206.890625 198 205.136719 199.3125 C 204.964844 199.4375 204.621094 199.417969 204.390625 199.351562 C 203.21875 199.015625 202.140625 199.167969 201.144531 199.867188 C 199.628906 200.925781 198.75 202.386719 198.414062 204.183594 C 198.148438 205.625 198.277344 206.988281 199.332031 208.371094 C 199.460938 208.09375 199.558594 207.871094 199.6875 207.59375 C 199.882812 208.167969 199.945312 208.605469 200.164062 208.941406 C 201.070312 210.347656 201.128906 211.726562 200.203125 213.148438 C 200.09375 213.316406 200.140625 213.816406 200.230469 213.851562 C 201.269531 214.246094 200.9375 215.503906 201.699219 216.097656 C 202.074219 216.390625 202.304688 216.949219 202.457031 217.433594 C 202.753906 218.371094 203.273438 218.808594 204.238281 218.605469 C 205.015625 218.441406 205.789062 218.179688 206.527344 217.871094 C 207.097656 217.632812 207.457031 217.773438 207.636719 218.304688 C 207.921875 219.167969 208.171875 220.039062 208.375 220.921875 C 208.421875 221.136719 208.28125 221.46875 208.117188 221.644531 C 206.851562 223.03125 205.554688 224.398438 204.265625 225.78125 C 203.308594 225.105469 203.316406 225.117188 202.367188 226.007812 C 202.089844 226.269531 201.703125 226.417969 201.414062 226.671875 C 200.828125 227.195312 200.234375 227.726562 199.710938 228.320312 C 199.289062 228.800781 198.386719 229.125 198.050781 228.789062 C 195.5625 226.285156 193.074219 223.789062 190.605469 221.269531 C 189.53125 220.171875 188.648438 218.929688 188.164062 217.445312 C 187.828125 216.417969 187.105469 215.878906 186.050781 215.691406 C 185.195312 215.53125 184.351562 215.277344 183.492188 215.066406 C 183.5625 214.628906 183.605469 214.332031 183.660156 214.03125 C 184.164062 211.386719 185.054688 208.953125 187.246094 207.179688 C 187.6875 206.824219 188.050781 206.730469 188.582031 207.011719 C 189.476562 207.476562 190.417969 207.863281 191.476562 208.347656 C 191.039062 207.214844 190.691406 206.238281 190.285156 205.277344 C 190.054688 204.722656 190.136719 204.273438 190.5 203.816406 C 191.066406 203.109375 191.609375 202.378906 192.277344 201.507812 C 191.175781 201.453125 190.242188 201.386719 189.308594 201.367188 C 188.703125 201.355469 188.269531 201.148438 187.960938 200.601562 C 187.5 199.773438 186.976562 198.976562 186.410156 198.0625 C 186.125 199.046875 185.863281 199.867188 185.660156 200.695312 C 185.515625 201.273438 185.183594 201.589844 184.625 201.75 C 183.691406 202.019531 182.769531 202.339844 181.75 202.667969 C 182.703125 203.441406 183.558594 204.105469 184.367188 204.8125 C 184.558594 204.980469 184.75 205.34375 184.699219 205.5625 C 184.101562 208.3125 183.464844 211.054688 182.835938 213.796875 C 182.792969 213.792969 182.753906 213.796875 182.746094 213.78125 C 179.5 209.300781 177.566406 204.402344 178.355469 198.769531 C 178.84375 195.308594 180.140625 192.25 183.308594 190.300781 C 183.980469 189.886719 184.496094 189.730469 185.171875 190.253906 C 185.851562 190.777344 186.609375 191.203125 187.441406 191.746094 C 187.148438 190.5625 186.929688 189.535156 186.632812 188.53125 C 186.46875 187.972656 186.613281 187.578125 186.996094 187.191406 C 187.628906 186.546875 188.238281 185.878906 188.972656 185.097656 C 187.972656 184.949219 187.160156 184.808594 186.34375 184.707031 C 185.742188 184.632812 185.335938 184.390625 185.117188 183.78125 C 184.820312 182.960938 184.433594 182.171875 184.039062 181.265625 C 183.65625 182.144531 183.28125 182.914062 182.980469 183.710938 C 182.765625 184.285156 182.394531 184.515625 181.8125 184.589844 C 180.925781 184.703125 180.042969 184.878906 179.019531 185.054688 C 179.664062 185.75 180.140625 186.371094 180.71875 186.871094 C 181.484375 187.535156 181.492188 188.175781 181.058594 189.046875 C 180.273438 190.636719 179.605469 192.28125 178.890625 193.902344 C 176.929688 198.339844 177 202.84375 178.449219 207.390625 C 179.316406 210.113281 180.773438 212.519531 182.40625 214.800781 C 182.144531 215.007812 181.878906 215.164062 181.691406 215.382812 C 181.492188 215.617188 181.292969 215.898438 181.246094 216.1875 C 181.199219 216.457031 181.355469 216.761719 181.417969 217.050781 C 181.433594 217.128906 181.441406 217.214844 181.425781 217.296875 C 181.257812 218.324219 181.527344 219.183594 182.378906 219.839844 C 182.5 219.929688 182.632812 220.09375 182.640625 220.230469 C 182.71875 221.445312 182.773438 222.65625 182.839844 224.082031 C 182.199219 223.699219 181.851562 223.851562 181.757812 224.425781 C 181.570312 224.308594 181.4375 224.21875 181.320312 224.140625 C 181.050781 224.550781 180.726562 224.867188 180.621094 225.25 C 180.261719 226.539062 179.722656 227.859375 179.746094 229.164062 C 179.773438 230.769531 181.054688 231.679688 182.457031 232.347656 C 184.105469 233.128906 185.75 233.929688 187.347656 234.808594 C 189.820312 236.175781 192.234375 237.671875 194.980469 238.457031 C 197.242188 239.105469 199.523438 239.542969 201.8125 238.277344 C 202.398438 240.332031 202.679688 242.363281 201.5 244.253906 C 200.609375 245.6875 199.621094 247.070312 198.554688 248.375 C 195.09375 252.609375 192.5625 257.292969 191.402344 262.671875 C 190.851562 265.214844 190.851562 267.636719 192.84375 269.671875 C 193.222656 270.058594 193.539062 270.1875 193.984375 269.871094 C 194.753906 269.335938 195.515625 268.789062 196.292969 268.238281 C 196.699219 269.46875 197.105469 270.710938 197.511719 271.949219 C 197.675781 271.953125 197.675781 271.953125 197.839844 271.957031 C 198.148438 271.113281 198.460938 270.273438 198.777344 269.421875 C 199.257812 270.0625 199.6875 270.710938 200.191406 271.292969 C 201.214844 272.460938 201.558594 272.457031 202.65625 271.382812 C 202.859375 271.183594 203.0625 270.980469 203.300781 270.75 C 203.703125 271.5 204.046875 272.136719 204.460938 272.90625 C 204.972656 272.023438 205.390625 271.296875 205.71875 270.730469 C 206.527344 272.613281 207.347656 274.511719 208.15625 276.410156 C 208.804688 277.9375 209.523438 279.441406 210.070312 281.003906 C 210.96875 283.570312 211.710938 286.179688 212.589844 288.753906 C 214.378906 294.007812 215.972656 299.269531 214.824219 304.945312 C 214.472656 306.691406 214.679688 308.589844 213.054688 309.871094 C 212.902344 309.992188 212.789062 310.433594 212.867188 310.511719 C 213.035156 310.679688 213.355469 310.804688 213.59375 310.773438 C 215.605469 310.5 217.109375 309.488281 217.9375 307.597656 C 218.207031 306.988281 218.324219 306.308594 218.636719 305.730469 C 219.15625 304.75 219.773438 303.820312 220.351562 302.871094 L 220.5625 302.984375 C 220.683594 303.949219 220.804688 304.910156 220.925781 305.871094 C 221.039062 305.894531 221.152344 305.917969 221.269531 305.9375 C 221.398438 305.671875 221.617188 305.414062 221.644531 305.140625 C 221.726562 304.234375 221.605469 303.28125 221.8125 302.410156 C 222.175781 300.835938 221.710938 299.660156 220.53125 298.636719 C 219.21875 297.492188 218.671875 295.972656 218.636719 294.261719 C 218.601562 292.347656 218.660156 290.433594 218.585938 288.519531 C 218.515625 286.691406 218.460938 284.851562 218.160156 283.058594 C 217.695312 280.257812 216.289062 277.804688 214.953125 275.335938 C 214.507812 274.511719 214.285156 273.5625 214.074219 272.984375 C 214.855469 272.101562 215.394531 271.488281 215.90625 270.910156 C 217.34375 272.277344 218.78125 273.625 220.191406 274.992188 C 220.789062 275.574219 221.394531 276.15625 221.890625 276.816406 C 222.820312 278.042969 223.960938 278.980469 225.355469 279.601562 C 227.652344 280.617188 229.585938 282.128906 231.3125 283.925781 C 231.792969 284.425781 232.292969 284.90625 232.796875 285.382812 C 236.394531 288.769531 240.1875 291.953125 243.398438 295.738281 C 244.011719 296.464844 244.640625 297.183594 245.292969 297.945312 C 246.957031 299.417969 248.515625 300.414062 250.789062 301.5625 C 252.429688 302.390625 253.976562 302.304688 255.480469 301.261719 C 256.429688 300.609375 256.464844 300.183594 255.574219 299.484375 C 255.058594 299.078125 254.492188 298.742188 253.949219 298.375 C 252.828125 297.78125 251.976562 297.011719 251.597656 296.632812 C 251.460938 296.496094 251.347656 296.339844 251.265625 296.164062 C 251.261719 296.160156 251.257812 296.152344 251.257812 296.148438 C 250.910156 295.4375 251.355469 294.597656 252.132812 294.476562 C 252.765625 294.378906 253.320312 294.332031 253.320312 294.332031 C 253.34375 293.882812 252.992188 293.605469 252.992188 293.605469 C 252.425781 293.78125 250.867188 293.949219 250.289062 293.925781 C 249.996094 293.910156 249.714844 293.839844 249.433594 293.761719 C 249.226562 293.703125 249.007812 293.695312 248.796875 293.738281 L 248.792969 293.738281 C 248.617188 293.777344 248.445312 293.851562 248.289062 293.964844 C 247.929688 294.226562 247.695312 294.488281 247.695312 294.488281 C 245.710938 294.171875 244.460938 290.53125 244.460938 290.53125 C 243.484375 288.851562 242.511719 287.171875 241.492188 285.519531 C 238.847656 281.246094 235.625 277.5625 230.878906 275.527344 C 229.585938 274.972656 228.542969 274.152344 227.71875 273.039062 C 227.125 272.238281 226.652344 271.335938 226 270.589844 C 224.882812 269.316406 225.273438 268.015625 225.695312 266.664062 C 226.527344 267.277344 227.328125 267.863281 228.125 268.453125 C 228.222656 268.398438 228.230469 268.390625 228.324219 268.335938 C 228.21875 267.5 228.113281 266.664062 228.015625 265.894531 C 228.871094 266.230469 229.710938 266.5625 230.550781 266.898438 C 231.039062 267.089844 231.320312 266.871094 231.558594 266.457031 C 232.160156 265.417969 232.375 264.308594 232.191406 263.070312 C 233.144531 263.523438 234.027344 263.953125 234.730469 264.289062 C 235.042969 263.597656 235.335938 263.011719 235.570312 262.402344 C 235.75 261.941406 235.929688 261.460938 235.964844 260.980469 C 236.066406 259.691406 235.414062 258.636719 234.597656 257.773438 C 232.613281 255.6875 230.640625 253.5625 228.457031 251.691406 C 224.15625 248.003906 219.265625 245.3125 213.777344 243.800781 C 212.078125 243.332031 211.5 242.511719 212.113281 240.882812 C 212.523438 239.789062 213.257812 238.820312 213.796875 237.769531 C 214.519531 236.355469 215.214844 234.929688 215.910156 233.503906 C 217.824219 231.664062 218.964844 233.675781 219.015625 233.769531 C 219.828125 235.476562 220.628906 237.191406 221.53125 238.851562 C 222.257812 240.183594 223.082031 241.476562 223.980469 242.699219 C 224.8125 243.835938 225.976562 244.25 227.433594 243.980469 C 228.347656 243.8125 229.320312 243.8125 230.246094 243.90625 C 232.203125 244.109375 233.011719 245.265625 232.652344 247.183594 C 232.582031 247.570312 232.492188 247.949219 232.398438 248.386719 C 234.476562 247.683594 235.367188 246.0625 235.203125 243.441406 C 237.648438 243.019531 240.285156 244.371094 241.335938 246.574219 C 241.707031 247.347656 242.050781 248.144531 242.507812 248.863281 C 243.625 250.605469 245.78125 251.355469 247.597656 250.710938 C 248.898438 250.253906 249.410156 249.007812 248.703125 247.8125 C 248.839844 248.582031 248.753906 249.160156 248.003906 249.445312 C 247.003906 249.832031 246.117188 249.554688 245.574219 248.628906 C 244.890625 247.46875 244.777344 246.210938 245.082031 244.925781 C 245.78125 241.9375 244.789062 239.53125 242.59375 237.523438 C 240.511719 235.617188 238.027344 234.40625 235.433594 233.390625 C 234.183594 232.902344 232.910156 232.472656 231.503906 231.960938 C 233.421875 231.820312 235.183594 231.746094 236.929688 231.546875 C 239.535156 231.257812 242.09375 230.734375 244.308594 229.207031 C 246.25 227.867188 246.546875 226.601562 245.523438 224.617188 C 246.664062 223.890625 247.867188 223.25 248.917969 222.421875 C 251.078125 220.707031 251.535156 218.875 250.621094 216.40625 C 251.476562 215.679688 252.367188 215.011719 253.144531 214.230469 C 254.105469 213.269531 254.851562 212.128906 254.753906 210.703125 C 254.710938 210.074219 254.914062 209.667969 255.285156 209.230469 C 256.535156 207.75 257.523438 206.128906 257.898438 204.1875 Z M 192.605469 233.050781 C 190.515625 232.515625 188.449219 231.882812 186.375 231.289062 C 185.640625 231.078125 185.277344 230.648438 185.171875 229.824219 C 185.046875 228.816406 184.769531 227.804688 184.394531 226.859375 C 183.5 224.597656 183.632812 222.234375 183.464844 219.667969 C 183.859375 219.976562 184.144531 220.15625 184.371094 220.386719 C 185.0625 221.074219 185.835938 221.527344 186.84375 221.625 C 187.195312 221.65625 187.613281 221.957031 187.835938 222.257812 C 188.984375 223.820312 190.113281 225.402344 191.191406 227.011719 C 192.761719 229.363281 194.347656 231.695312 196.382812 233.773438 C 195.121094 233.539062 193.84375 233.371094 192.605469 233.050781 Z M 192.605469 233.050781 " fill-opacity="1" fill-rule="nonzero"/></g></svg>