<svg xmlns="http://www.w3.org/2000/svg" xmlns:xlink="http://www.w3.org/1999/xlink" width="500" zoomAndPan="magnify" viewBox="0 0 375 374.999991" height="500" preserveAspectRatio="xMidYMid meet" version="1.0"><defs><g/><clipPath id="7fe21641a0"><path d="M 103 71 L 295.027344 71 L 295.027344 267.878906 L 103 267.878906 Z M 103 71 " clip-rule="nonzero"/></clipPath><clipPath id="2f5a34ea31"><path d="M 85 53.378906 L 122 53.378906 L 122 136 L 85 136 Z M 85 53.378906 " clip-rule="nonzero"/></clipPath><clipPath id="aea8e78df4"><path d="M 169.914062 170 L 174 170 L 174 175 L 169.914062 175 Z M 169.914062 170 " clip-rule="nonzero"/></clipPath><clipPath id="c699847326"><path d="M 179 155.59375 L 246.414062 155.59375 L 246.414062 263.59375 L 179 263.59375 Z M 179 155.59375 " clip-rule="nonzero"/></clipPath><clipPath id="7f638d2a2d"><rect x="0" width="118" y="0" height="39"/></clipPath></defs><g clip-path="url(#7fe21641a0)"><path fill="#67a516" d="M 207.308594 263.597656 C 162.832031 263.597656 125.644531 232.402344 116.457031 190.707031 C 115.007812 184.117188 114.28125 177.449219 114.28125 170.707031 L 114.28125 170.621094 C 114.273438 161.914062 115.46875 153.375 117.863281 145.003906 C 117.863281 145.003906 128.09375 113.128906 169.09375 95.117188 C 169.09375 95.117188 134.253906 118.519531 124.75 145.140625 C 146.792969 144.621094 185.019531 134.667969 209.261719 77.664062 C 210.035156 75.847656 210.792969 73.980469 211.539062 72.0625 C 208.453125 71.769531 205.328125 71.621094 202.160156 71.621094 C 147.9375 71.621094 103.980469 115.554688 103.980469 169.746094 C 103.980469 172.472656 104.089844 175.175781 104.3125 177.851562 C 104.660156 182.132812 105.289062 186.371094 106.195312 190.566406 C 115.75 234.753906 155.085938 267.871094 202.160156 267.871094 C 245.191406 267.871094 281.757812 240.199219 295.019531 201.691406 C 282.21875 237.761719 247.78125 263.597656 207.308594 263.597656 Z M 207.308594 263.597656 " fill-opacity="1" fill-rule="nonzero"/></g><path fill="#67a516" d="M 153.042969 232.21875 C 167.636719 213.480469 147.777344 188.707031 147.777344 188.707031 C 122.117188 215.601562 146.566406 239.207031 146.566406 239.207031 C 146.566406 239.207031 140.035156 222.417969 143.429688 206.074219 C 143.429688 206.074219 144.292969 228.191406 148.226562 237.113281 C 151.566406 244.875 156.441406 252.707031 161.589844 252.375 C 161.589844 252.375 151.296875 239.582031 153.042969 232.222656 Z M 153.042969 232.21875 " fill-opacity="1" fill-rule="nonzero"/><g clip-path="url(#2f5a34ea31)"><path fill="#67a516" d="M 108.453125 106.539062 C 79.796875 94.378906 86.714844 53.375 86.714844 53.375 C 133.25 67.8125 120.320312 110.414062 120.320312 110.414062 C 120.320312 110.414062 117.085938 87.03125 102.773438 70.484375 C 102.773438 70.484375 115.898438 96.351562 117.085938 109.066406 C 118.214844 120.085938 117.628906 132.15625 111.527344 135.054688 C 111.527344 135.054688 115.144531 113.855469 108.453125 106.539062 Z M 108.453125 106.539062 " fill-opacity="1" fill-rule="nonzero"/></g><path fill="#67a516" d="M 173.457031 175.117188 C 173.25 175.65625 173.1875 176.230469 172.867188 176.511719 C 172.5625 176.777344 171.988281 176.730469 171.335938 176.863281 C 172.503906 177.347656 172.820312 178.109375 172.394531 179.242188 C 173.261719 178.25 174.078125 178.398438 174.964844 179.167969 C 174.347656 178.046875 174.734375 177.273438 175.667969 176.691406 C 175.070312 176.613281 174.476562 176.695312 174.125 176.441406 C 173.78125 176.199219 173.6875 175.613281 173.457031 175.117188 Z M 173.457031 175.117188 " fill-opacity="1" fill-rule="nonzero"/><g clip-path="url(#aea8e78df4)"><path fill="#67a516" d="M 173.300781 174.367188 C 172.953125 172.894531 172.953125 172.894531 173.917969 171.808594 C 173.40625 171.746094 172.839844 171.832031 172.503906 171.589844 C 172.175781 171.355469 172.082031 170.792969 171.851562 170.304688 C 171.65625 170.824219 171.609375 171.386719 171.304688 171.648438 C 170.996094 171.90625 170.433594 171.859375 169.933594 171.957031 C 170.289062 172.28125 170.777344 172.53125 170.910156 172.90625 C 171.046875 173.289062 170.839844 173.792969 170.785156 174.246094 C 171.648438 173.132812 172.453125 173.664062 173.300781 174.367188 Z M 173.300781 174.367188 " fill-opacity="1" fill-rule="nonzero"/></g><g clip-path="url(#c699847326)"><path fill="#67a516" d="M 246.203125 174.703125 C 246.550781 172.902344 245.84375 171.386719 244.402344 171.066406 C 243.789062 170.929688 243.074219 170.902344 242.484375 171.078125 C 240.746094 171.613281 238.96875 172.113281 237.34375 172.910156 C 231.503906 175.78125 226.554688 179.875 222.035156 184.507812 C 219.234375 187.375 216.699219 190.441406 214.628906 193.863281 C 212.289062 196.394531 211.773438 193.222656 211.773438 193.222656 C 211.765625 192.964844 211.753906 192.707031 211.734375 192.453125 C 211.601562 190.792969 211.015625 189.265625 210.160156 187.828125 C 209.617188 186.914062 209.238281 185.933594 209.339844 184.808594 C 211.84375 184.351562 213.113281 182.59375 214.175781 180.558594 C 213.910156 181.238281 213.585938 181.886719 213.1875 182.484375 C 212.765625 183.117188 212.21875 183.671875 211.820312 184.316406 C 211.152344 185.398438 211.242188 186.605469 211.953125 187.34375 C 212.703125 188.121094 214.234375 188.328125 215.25 187.792969 C 216.164062 187.308594 216.476562 186.417969 216.105469 185.710938 C 215.773438 185.941406 215.457031 186.296875 215.074219 186.40625 C 214.507812 186.5625 213.976562 186.34375 213.640625 185.808594 C 213.320312 185.292969 213.492188 184.8125 213.816406 184.390625 C 214.445312 183.578125 214.953125 182.726562 215.160156 181.691406 C 215.457031 180.183594 215.378906 178.695312 215.070312 177.210938 C 214.929688 176.546875 214.738281 175.894531 214.574219 175.238281 C 215.101562 176.097656 215.496094 177.007812 215.992188 177.859375 C 216.703125 179.085938 217.597656 180.128906 219.085938 180.457031 C 219.21875 180.488281 219.390625 180.613281 219.4375 180.734375 C 219.859375 181.769531 219.339844 182.6875 218.242188 182.953125 C 218.546875 183.058594 218.875 183.164062 219.167969 183.105469 C 220.359375 182.871094 220.957031 181.621094 220.660156 180.175781 C 220.597656 179.882812 220.675781 179.507812 220.808594 179.238281 C 221.109375 178.636719 221.203125 178.089844 220.839844 177.628906 C 220.625 177.953125 220.433594 178.519531 220.195312 178.539062 C 219.660156 178.585938 219 178.503906 218.59375 178.203125 C 218.277344 177.972656 218.109375 177.304688 218.164062 176.871094 C 218.230469 176.324219 218.566406 175.800781 218.835938 175.292969 C 219.46875 174.078125 219.730469 172.832031 219.332031 171.476562 C 219.238281 171.160156 219.265625 170.75 219.382812 170.441406 C 220.140625 168.46875 219.035156 166.503906 216.949219 166.292969 C 216.316406 166.230469 215.925781 166 215.519531 165.523438 C 214.308594 164.105469 212.738281 163.542969 210.90625 163.949219 C 209.265625 164.316406 208.183594 165.367188 207.867188 167.015625 C 207.695312 167.890625 207.835938 168.824219 207.835938 169.738281 C 207.820312 169.742188 207.773438 169.757812 207.734375 169.753906 C 207.503906 169.726562 207.273438 169.6875 207.046875 169.660156 C 205.332031 169.484375 203.671875 169.542969 202.207031 170.636719 C 202.0625 170.742188 201.777344 170.726562 201.585938 170.667969 C 200.609375 170.390625 199.707031 170.519531 198.875 171.097656 C 197.613281 171.984375 196.882812 173.199219 196.601562 174.699219 C 196.378906 175.902344 196.488281 177.035156 197.367188 178.191406 C 197.472656 177.957031 197.554688 177.773438 197.660156 177.542969 C 197.824219 178.019531 197.878906 178.386719 198.058594 178.664062 C 198.816406 179.839844 198.867188 180.988281 198.09375 182.175781 C 198.003906 182.316406 198.039062 182.730469 198.117188 182.761719 C 198.980469 183.089844 198.703125 184.140625 199.339844 184.632812 C 199.652344 184.878906 199.84375 185.34375 199.972656 185.75 C 200.21875 186.53125 200.652344 186.894531 201.457031 186.726562 C 202.105469 186.589844 202.75 186.371094 203.367188 186.113281 C 203.839844 185.914062 204.140625 186.035156 204.289062 186.476562 C 204.53125 187.195312 204.738281 187.921875 204.910156 188.660156 C 204.949219 188.835938 204.828125 189.113281 204.691406 189.257812 C 203.636719 190.417969 202.554688 191.554688 201.480469 192.710938 C 200.683594 192.148438 200.6875 192.15625 199.898438 192.898438 C 199.664062 193.117188 199.34375 193.238281 199.105469 193.453125 C 198.613281 193.890625 198.117188 194.332031 197.683594 194.828125 C 197.332031 195.230469 196.578125 195.5 196.296875 195.214844 C 194.222656 193.128906 192.148438 191.046875 190.089844 188.949219 C 189.191406 188.03125 188.457031 186.996094 188.050781 185.757812 C 187.773438 184.902344 187.171875 184.453125 186.292969 184.292969 C 185.574219 184.160156 184.875 183.949219 184.15625 183.773438 C 184.21875 183.410156 184.25 183.160156 184.296875 182.914062 C 184.71875 180.707031 185.460938 178.675781 187.285156 177.199219 C 187.65625 176.902344 187.957031 176.824219 188.398438 177.054688 C 189.148438 177.445312 189.929688 177.769531 190.8125 178.171875 C 190.449219 177.226562 190.160156 176.410156 189.824219 175.609375 C 189.628906 175.148438 189.699219 174.773438 190.003906 174.394531 C 190.472656 173.804688 190.925781 173.195312 191.484375 172.46875 C 190.5625 172.421875 189.785156 172.363281 189.007812 172.351562 C 188.503906 172.339844 188.140625 172.167969 187.886719 171.710938 C 187.5 171.019531 187.0625 170.359375 186.59375 169.59375 C 186.355469 170.414062 186.136719 171.097656 185.964844 171.792969 C 185.84375 172.273438 185.570312 172.535156 185.101562 172.667969 C 184.324219 172.894531 183.554688 173.164062 182.707031 173.433594 C 183.5 174.082031 184.210938 174.632812 184.886719 175.222656 C 185.046875 175.363281 185.207031 175.664062 185.164062 175.847656 C 184.664062 178.144531 184.132812 180.429688 183.609375 182.714844 C 183.574219 182.710938 183.542969 182.714844 183.535156 182.703125 C 180.828125 178.964844 179.214844 174.882812 179.875 170.183594 C 180.28125 167.300781 181.359375 164.746094 184.003906 163.121094 C 184.5625 162.773438 184.996094 162.648438 185.554688 163.082031 C 186.125 163.519531 186.757812 163.875 187.449219 164.324219 C 187.207031 163.339844 187.023438 162.484375 186.777344 161.644531 C 186.636719 161.179688 186.761719 160.851562 187.078125 160.527344 C 187.605469 159.992188 188.117188 159.433594 188.726562 158.785156 C 187.894531 158.65625 187.21875 158.539062 186.535156 158.457031 C 186.03125 158.394531 185.695312 158.195312 185.511719 157.683594 C 185.265625 157 184.941406 156.34375 184.613281 155.585938 C 184.292969 156.320312 183.980469 156.960938 183.730469 157.628906 C 183.550781 158.105469 183.242188 158.296875 182.757812 158.359375 C 182.015625 158.453125 181.28125 158.601562 180.425781 158.746094 C 180.964844 159.328125 181.359375 159.84375 181.84375 160.261719 C 182.480469 160.816406 182.488281 161.347656 182.128906 162.074219 C 181.472656 163.402344 180.914062 164.773438 180.316406 166.125 C 178.683594 169.824219 178.742188 173.578125 179.949219 177.371094 C 180.675781 179.640625 181.886719 181.652344 183.25 183.554688 C 183.035156 183.726562 182.8125 183.855469 182.652344 184.039062 C 182.488281 184.234375 182.324219 184.46875 182.285156 184.707031 C 182.246094 184.933594 182.375 185.1875 182.429688 185.429688 C 182.441406 185.492188 182.449219 185.566406 182.433594 185.632812 C 182.292969 186.492188 182.519531 187.207031 183.226562 187.753906 C 183.328125 187.828125 183.4375 187.96875 183.445312 188.082031 C 183.511719 189.09375 183.558594 190.105469 183.613281 191.292969 C 183.078125 190.976562 182.789062 191.101562 182.710938 191.582031 C 182.554688 191.480469 182.441406 191.40625 182.34375 191.34375 C 182.121094 191.683594 181.847656 191.949219 181.761719 192.265625 C 181.464844 193.34375 181.011719 194.445312 181.03125 195.53125 C 181.058594 196.867188 182.125 197.628906 183.292969 198.183594 C 184.667969 198.835938 186.039062 199.503906 187.371094 200.238281 C 189.433594 201.378906 191.445312 202.625 193.734375 203.28125 C 195.621094 203.820312 197.527344 204.1875 199.433594 203.132812 C 199.921875 204.84375 200.15625 206.535156 199.171875 208.113281 C 198.433594 209.308594 197.609375 210.460938 196.71875 211.550781 C 193.832031 215.082031 191.722656 218.988281 190.753906 223.472656 C 190.292969 225.59375 190.292969 227.613281 191.953125 229.3125 C 192.269531 229.632812 192.535156 229.742188 192.90625 229.480469 C 193.546875 229.03125 194.183594 228.574219 194.832031 228.113281 C 195.167969 229.140625 195.511719 230.175781 195.851562 231.210938 C 195.984375 231.214844 195.984375 231.214844 196.121094 231.214844 C 196.378906 230.515625 196.640625 229.8125 196.902344 229.101562 C 197.304688 229.636719 197.660156 230.179688 198.082031 230.660156 C 198.9375 231.636719 199.222656 231.632812 200.140625 230.738281 C 200.308594 230.570312 200.476562 230.402344 200.675781 230.210938 C 201.011719 230.835938 201.296875 231.367188 201.644531 232.007812 C 202.070312 231.273438 202.417969 230.667969 202.691406 230.191406 C 203.367188 231.765625 204.050781 233.347656 204.722656 234.929688 C 205.265625 236.203125 205.867188 237.457031 206.320312 238.761719 C 207.070312 240.898438 207.691406 243.078125 208.421875 245.222656 C 209.914062 249.605469 211.242188 253.992188 210.285156 258.726562 C 209.992188 260.183594 210.167969 261.765625 208.808594 262.835938 C 208.683594 262.9375 208.589844 263.300781 208.65625 263.367188 C 208.792969 263.507812 209.0625 263.613281 209.257812 263.585938 C 210.9375 263.359375 212.191406 262.515625 212.882812 260.9375 C 213.105469 260.429688 213.207031 259.863281 213.464844 259.382812 C 213.898438 258.5625 214.414062 257.789062 214.894531 256.996094 L 215.070312 257.09375 C 215.171875 257.894531 215.273438 258.695312 215.375 259.5 C 215.46875 259.515625 215.5625 259.535156 215.660156 259.554688 C 215.765625 259.332031 215.953125 259.117188 215.972656 258.890625 C 216.042969 258.132812 215.941406 257.339844 216.113281 256.613281 C 216.417969 255.300781 216.027344 254.316406 215.046875 253.464844 C 213.949219 252.507812 213.492188 251.242188 213.464844 249.816406 C 213.433594 248.21875 213.484375 246.625 213.421875 245.027344 C 213.363281 243.503906 213.320312 241.96875 213.070312 240.472656 C 212.679688 238.136719 211.507812 236.09375 210.390625 234.035156 C 210.019531 233.347656 209.835938 232.554688 209.660156 232.074219 C 210.3125 231.335938 210.761719 230.828125 211.1875 230.34375 C 212.386719 231.484375 213.582031 232.605469 214.761719 233.75 C 215.257812 234.230469 215.765625 234.71875 216.179688 235.269531 C 216.953125 236.292969 217.902344 237.074219 219.070312 237.589844 C 220.984375 238.4375 222.59375 239.699219 224.035156 241.195312 C 224.4375 241.613281 224.851562 242.015625 225.273438 242.414062 C 228.273438 245.238281 231.4375 247.890625 234.113281 251.046875 C 234.625 251.652344 235.148438 252.253906 235.695312 252.886719 C 237.082031 254.117188 238.382812 254.949219 240.277344 255.90625 C 241.644531 256.597656 242.933594 256.523438 244.191406 255.65625 C 244.980469 255.109375 245.011719 254.757812 244.269531 254.171875 C 243.839844 253.835938 243.367188 253.550781 242.910156 253.246094 C 241.980469 252.753906 241.269531 252.109375 240.953125 251.796875 C 240.835938 251.683594 240.746094 251.550781 240.675781 251.402344 C 240.671875 251.398438 240.667969 251.394531 240.667969 251.390625 C 240.378906 250.800781 240.75 250.097656 241.398438 249.996094 C 241.925781 249.914062 242.390625 249.875 242.390625 249.875 C 242.410156 249.5 242.113281 249.269531 242.113281 249.269531 C 241.644531 249.417969 240.34375 249.554688 239.859375 249.535156 C 239.617188 249.523438 239.382812 249.464844 239.148438 249.398438 C 238.976562 249.351562 238.792969 249.34375 238.617188 249.382812 C 238.617188 249.382812 238.613281 249.382812 238.613281 249.382812 C 238.464844 249.414062 238.320312 249.476562 238.191406 249.570312 C 237.894531 249.785156 237.699219 250.003906 237.699219 250.003906 C 236.042969 249.742188 235 246.707031 235 246.707031 C 234.1875 245.304688 233.375 243.902344 232.523438 242.527344 C 230.316406 238.960938 227.632812 235.890625 223.675781 234.195312 C 222.59375 233.730469 221.726562 233.046875 221.039062 232.121094 C 220.542969 231.449219 220.152344 230.699219 219.605469 230.074219 C 218.675781 229.011719 219 227.929688 219.351562 226.804688 C 220.046875 227.3125 220.710938 227.804688 221.378906 228.292969 C 221.457031 228.246094 221.464844 228.242188 221.542969 228.195312 C 221.457031 227.5 221.367188 226.804688 221.285156 226.164062 C 222 226.441406 222.699219 226.71875 223.402344 226.996094 C 223.808594 227.160156 224.042969 226.972656 224.242188 226.632812 C 224.742188 225.761719 224.921875 224.835938 224.769531 223.804688 C 225.5625 224.183594 226.300781 224.539062 226.886719 224.824219 C 227.144531 224.246094 227.390625 223.753906 227.585938 223.246094 C 227.734375 222.863281 227.886719 222.460938 227.917969 222.0625 C 228 220.988281 227.457031 220.109375 226.773438 219.390625 C 225.121094 217.648438 223.476562 215.875 221.65625 214.316406 C 218.066406 211.242188 213.992188 209 209.414062 207.734375 C 207.996094 207.34375 207.511719 206.660156 208.023438 205.304688 C 208.367188 204.390625 208.980469 203.582031 209.429688 202.707031 C 210.03125 201.527344 210.609375 200.335938 211.191406 199.148438 C 212.789062 197.613281 213.738281 199.292969 213.78125 199.371094 C 214.457031 200.792969 215.125 202.222656 215.878906 203.609375 C 216.484375 204.71875 217.171875 205.796875 217.921875 206.816406 C 218.617188 207.765625 219.585938 208.109375 220.800781 207.886719 C 221.5625 207.746094 222.375 207.746094 223.148438 207.824219 C 224.777344 207.992188 225.453125 208.960938 225.152344 210.558594 C 225.09375 210.878906 225.019531 211.195312 224.941406 211.5625 C 226.675781 210.972656 227.417969 209.621094 227.277344 207.4375 C 229.320312 207.085938 231.519531 208.214844 232.394531 210.046875 C 232.703125 210.695312 232.992188 211.359375 233.375 211.960938 C 234.304688 213.410156 236.101562 214.039062 237.617188 213.5 C 238.699219 213.117188 239.128906 212.078125 238.539062 211.082031 C 238.652344 211.722656 238.582031 212.203125 237.957031 212.445312 C 237.121094 212.765625 236.382812 212.535156 235.925781 211.761719 C 235.359375 210.792969 235.265625 209.746094 235.515625 208.675781 C 236.101562 206.183594 235.273438 204.175781 233.445312 202.5 C 231.707031 200.910156 229.632812 199.902344 227.472656 199.054688 C 226.429688 198.648438 225.367188 198.289062 224.195312 197.863281 C 225.792969 197.746094 227.265625 197.683594 228.722656 197.519531 C 230.894531 197.277344 233.027344 196.839844 234.871094 195.566406 C 236.492188 194.449219 236.738281 193.394531 235.886719 191.738281 C 236.835938 191.132812 237.839844 190.601562 238.714844 189.90625 C 240.515625 188.476562 240.898438 186.949219 240.136719 184.894531 C 240.851562 184.285156 241.59375 183.726562 242.242188 183.078125 C 243.042969 182.277344 243.664062 181.324219 243.585938 180.136719 C 243.546875 179.609375 243.714844 179.273438 244.027344 178.90625 C 245.070312 177.671875 245.894531 176.320312 246.203125 174.703125 Z M 191.753906 198.769531 C 190.015625 198.324219 188.292969 197.796875 186.5625 197.300781 C 185.949219 197.125 185.644531 196.769531 185.558594 196.078125 C 185.453125 195.242188 185.222656 194.398438 184.910156 193.609375 C 184.164062 191.722656 184.273438 189.75 184.132812 187.613281 C 184.460938 187.867188 184.699219 188.019531 184.890625 188.210938 C 185.46875 188.785156 186.109375 189.164062 186.953125 189.242188 C 187.246094 189.269531 187.59375 189.519531 187.777344 189.773438 C 188.738281 191.074219 189.679688 192.390625 190.578125 193.738281 C 191.886719 195.695312 193.210938 197.640625 194.910156 199.375 C 193.855469 199.179688 192.789062 199.039062 191.753906 198.769531 Z M 191.753906 198.769531 " fill-opacity="1" fill-rule="nonzero"/></g><g transform="matrix(1, 0, 0, 1, 130, 282)"><g clip-path="url(#7f638d2a2d)"><g fill="#545454" fill-opacity="1"><g transform="translate(0.949088, 26.016486)"><g><path d="M 13.390625 -19.875 C 14.046875 -18.832031 14.46875 -17.648438 14.65625 -16.328125 C 14.84375 -15.003906 14.859375 -13.664062 14.703125 -12.3125 C 14.554688 -10.957031 14.285156 -9.695312 13.890625 -8.53125 C 13.492188 -7.363281 13.019531 -6.414062 12.46875 -5.6875 C 11.5625 -4.519531 10.503906 -3.492188 9.296875 -2.609375 C 8.097656 -1.734375 6.84375 -1.046875 5.53125 -0.546875 C 4.226562 -0.046875 2.957031 0.203125 1.71875 0.203125 C 1.5 0.203125 1.269531 0.191406 1.03125 0.171875 C 0.800781 0.140625 0.613281 0.0390625 0.46875 -0.125 C 0.3125 -0.332031 0.253906 -0.554688 0.296875 -0.796875 L 3.703125 -22.34375 C 3.765625 -22.789062 4.007812 -23.023438 4.4375 -23.046875 C 4.5 -23.046875 4.765625 -23.054688 5.234375 -23.078125 C 5.710938 -23.097656 6.304688 -23.070312 7.015625 -23 C 7.734375 -22.9375 8.492188 -22.800781 9.296875 -22.59375 C 10.109375 -22.382812 10.867188 -22.0625 11.578125 -21.625 C 12.296875 -21.1875 12.898438 -20.601562 13.390625 -19.875 Z M 11.140625 -6.671875 C 11.628906 -7.296875 12.039062 -8.125 12.375 -9.15625 C 12.71875 -10.195312 12.957031 -11.3125 13.09375 -12.5 C 13.226562 -13.6875 13.21875 -14.851562 13.0625 -16 C 12.90625 -17.144531 12.550781 -18.140625 12 -18.984375 C 11.644531 -19.554688 11.164062 -20.003906 10.5625 -20.328125 C 9.957031 -20.660156 9.3125 -20.910156 8.625 -21.078125 C 7.945312 -21.242188 7.300781 -21.347656 6.6875 -21.390625 C 6.082031 -21.429688 5.59375 -21.453125 5.21875 -21.453125 L 2.046875 -1.453125 C 3.109375 -1.492188 4.1875 -1.734375 5.28125 -2.171875 C 6.382812 -2.617188 7.441406 -3.226562 8.453125 -4 C 9.472656 -4.769531 10.367188 -5.660156 11.140625 -6.671875 Z M 11.140625 -6.671875 "/></g></g></g><g fill="#545454" fill-opacity="1"><g transform="translate(16.622978, 26.016486)"><g><path d="M 10.375 -10.515625 C 10.550781 -10.378906 10.65625 -10.195312 10.6875 -9.96875 C 10.726562 -9.738281 10.679688 -9.535156 10.546875 -9.359375 C 10.410156 -9.179688 10.234375 -9.078125 10.015625 -9.046875 C 9.796875 -9.015625 9.597656 -9.0625 9.421875 -9.1875 C 9.398438 -9.1875 9.238281 -9.25 8.9375 -9.375 C 8.644531 -9.5 8.234375 -9.535156 7.703125 -9.484375 C 7.171875 -9.441406 6.566406 -9.179688 5.890625 -8.703125 C 5.535156 -8.453125 5.1875 -8.03125 4.84375 -7.4375 C 4.5 -6.84375 4.175781 -6.160156 3.875 -5.390625 C 3.582031 -4.617188 3.316406 -3.84375 3.078125 -3.0625 C 2.835938 -2.28125 2.648438 -1.578125 2.515625 -0.953125 C 2.421875 -0.535156 2.15625 -0.328125 1.71875 -0.328125 C 1.65625 -0.328125 1.597656 -0.335938 1.546875 -0.359375 C 1.347656 -0.378906 1.179688 -0.484375 1.046875 -0.671875 C 0.921875 -0.859375 0.878906 -1.066406 0.921875 -1.296875 L 2.40625 -10.875 C 2.4375 -11.09375 2.546875 -11.269531 2.734375 -11.40625 C 2.921875 -11.539062 3.125 -11.597656 3.34375 -11.578125 C 3.5625 -11.523438 3.734375 -11.410156 3.859375 -11.234375 C 3.992188 -11.066406 4.050781 -10.867188 4.03125 -10.640625 L 3.734375 -8.734375 C 4.128906 -9.328125 4.535156 -9.765625 4.953125 -10.046875 C 5.703125 -10.578125 6.40625 -10.90625 7.0625 -11.03125 C 7.726562 -11.164062 8.300781 -11.191406 8.78125 -11.109375 C 9.269531 -11.023438 9.648438 -10.90625 9.921875 -10.75 C 10.203125 -10.59375 10.351562 -10.515625 10.375 -10.515625 Z M 10.375 -10.515625 "/></g></g></g><g fill="#545454" fill-opacity="1"><g transform="translate(27.105311, 26.016486)"><g><path d="M 8.5 -3.171875 C 8.675781 -3.304688 8.875 -3.367188 9.09375 -3.359375 C 9.3125 -3.347656 9.5 -3.253906 9.65625 -3.078125 C 9.8125 -2.898438 9.875 -2.703125 9.84375 -2.484375 C 9.820312 -2.265625 9.726562 -2.078125 9.5625 -1.921875 C 9.070312 -1.503906 8.457031 -1.109375 7.71875 -0.734375 C 6.976562 -0.359375 6.15625 -0.171875 5.25 -0.171875 C 4.988281 -0.171875 4.726562 -0.191406 4.46875 -0.234375 C 3.226562 -0.410156 2.289062 -1.023438 1.65625 -2.078125 C 1.28125 -2.722656 1.070312 -3.453125 1.03125 -4.265625 C 1 -4.328125 0.984375 -4.394531 0.984375 -4.46875 C 0.984375 -4.46875 1 -4.476562 1.03125 -4.5 C 1 -5.289062 1.140625 -6.113281 1.453125 -6.96875 C 1.785156 -7.832031 2.300781 -8.613281 3 -9.3125 C 3.707031 -10.019531 4.535156 -10.5625 5.484375 -10.9375 C 6.148438 -11.207031 6.785156 -11.359375 7.390625 -11.390625 C 7.992188 -11.421875 8.503906 -11.328125 8.921875 -11.109375 C 9.691406 -10.734375 10.113281 -10.148438 10.1875 -9.359375 C 10.226562 -8.785156 10.066406 -8.1875 9.703125 -7.5625 C 9.335938 -6.945312 8.800781 -6.363281 8.09375 -5.8125 C 7.019531 -5.019531 6.007812 -4.46875 5.0625 -4.15625 C 4.113281 -3.851562 3.34375 -3.679688 2.75 -3.640625 C 2.832031 -3.367188 2.929688 -3.125 3.046875 -2.90625 C 3.421875 -2.289062 3.96875 -1.9375 4.6875 -1.84375 C 5.488281 -1.71875 6.21875 -1.8125 6.875 -2.125 C 7.539062 -2.445312 8.082031 -2.796875 8.5 -3.171875 Z M 3.015625 -6.421875 C 2.859375 -6.046875 2.757812 -5.65625 2.71875 -5.25 C 3.195312 -5.320312 3.828125 -5.484375 4.609375 -5.734375 C 5.390625 -5.984375 6.222656 -6.453125 7.109375 -7.140625 C 7.640625 -7.535156 8.015625 -7.921875 8.234375 -8.296875 C 8.453125 -8.671875 8.5625 -8.976562 8.5625 -9.21875 C 8.539062 -9.269531 8.503906 -9.335938 8.453125 -9.421875 C 8.410156 -9.515625 8.316406 -9.59375 8.171875 -9.65625 C 8.054688 -9.71875 7.878906 -9.75 7.640625 -9.75 C 7.441406 -9.75 7.207031 -9.722656 6.9375 -9.671875 C 6.675781 -9.617188 6.390625 -9.535156 6.078125 -9.421875 C 5.359375 -9.140625 4.726562 -8.734375 4.1875 -8.203125 C 3.644531 -7.671875 3.253906 -7.078125 3.015625 -6.421875 Z M 3.015625 -6.421875 "/></g></g></g><g fill="#545454" fill-opacity="1"><g transform="translate(38.282057, 26.016486)"><g><path d="M 10.71875 -11.078125 C 10.914062 -11.015625 11.066406 -10.898438 11.171875 -10.734375 C 11.285156 -10.566406 11.332031 -10.382812 11.3125 -10.1875 L 9.859375 -0.5625 C 9.804688 -0.34375 9.691406 -0.164062 9.515625 -0.03125 C 9.335938 0.101562 9.140625 0.144531 8.921875 0.09375 C 8.679688 0.0703125 8.492188 -0.03125 8.359375 -0.21875 C 8.234375 -0.40625 8.191406 -0.609375 8.234375 -0.828125 L 8.953125 -5.546875 C 8.410156 -4.628906 7.800781 -3.734375 7.125 -2.859375 C 6.445312 -1.984375 5.742188 -1.265625 5.015625 -0.703125 C 4.296875 -0.148438 3.570312 0.125 2.84375 0.125 C 2.707031 0.125 2.585938 0.113281 2.484375 0.09375 C 1.691406 -0.0078125 1.160156 -0.515625 0.890625 -1.421875 C 0.691406 -2.128906 0.679688 -2.984375 0.859375 -3.984375 C 1.035156 -4.984375 1.40625 -6.003906 1.96875 -7.046875 C 2.53125 -8.097656 3.265625 -9.035156 4.171875 -9.859375 C 5.316406 -10.867188 6.460938 -11.273438 7.609375 -11.078125 C 8.003906 -11.015625 8.359375 -10.894531 8.671875 -10.71875 C 8.992188 -10.539062 9.273438 -10.335938 9.515625 -10.109375 C 9.585938 -10.265625 9.664062 -10.429688 9.75 -10.609375 C 9.945312 -11.054688 10.269531 -11.210938 10.71875 -11.078125 Z M 2.71875 -1.515625 C 3.238281 -1.453125 4.050781 -1.976562 5.15625 -3.09375 C 6.257812 -4.207031 7.460938 -6.03125 8.765625 -8.5625 C 8.609375 -8.738281 8.40625 -8.921875 8.15625 -9.109375 C 7.914062 -9.296875 7.644531 -9.410156 7.34375 -9.453125 C 7.25 -9.472656 7.160156 -9.484375 7.078125 -9.484375 C 6.523438 -9.484375 5.914062 -9.195312 5.25 -8.625 C 4.476562 -7.925781 3.863281 -7.140625 3.40625 -6.265625 C 2.945312 -5.390625 2.640625 -4.554688 2.484375 -3.765625 C 2.328125 -2.972656 2.316406 -2.347656 2.453125 -1.890625 C 2.472656 -1.835938 2.503906 -1.757812 2.546875 -1.65625 C 2.585938 -1.5625 2.644531 -1.515625 2.71875 -1.515625 Z M 2.71875 -1.515625 "/></g></g></g><g fill="#545454" fill-opacity="1"><g transform="translate(50.417748, 26.016486)"><g><path d="M 16 -11.234375 C 17.539062 -10.710938 17.738281 -7.222656 16.59375 -0.765625 C 16.53125 -0.296875 16.265625 -0.0625 15.796875 -0.0625 C 15.753906 -0.0625 15.710938 -0.0703125 15.671875 -0.09375 C 15.453125 -0.113281 15.273438 -0.21875 15.140625 -0.40625 C 15.003906 -0.59375 14.960938 -0.800781 15.015625 -1.03125 C 15.234375 -2.351562 15.398438 -3.632812 15.515625 -4.875 C 15.640625 -6.125 15.691406 -7.179688 15.671875 -8.046875 C 15.648438 -8.921875 15.5625 -9.476562 15.40625 -9.71875 C 15.03125 -9.78125 14.515625 -9.457031 13.859375 -8.75 C 13.210938 -8.050781 12.515625 -7.023438 11.765625 -5.671875 C 11.015625 -4.316406 10.289062 -2.691406 9.59375 -0.796875 C 9.5 -0.597656 9.359375 -0.445312 9.171875 -0.34375 C 8.984375 -0.25 8.789062 -0.222656 8.59375 -0.265625 C 8.375 -0.328125 8.207031 -0.453125 8.09375 -0.640625 C 7.988281 -0.828125 7.957031 -1.019531 8 -1.21875 C 8.257812 -2.476562 8.460938 -3.703125 8.609375 -4.890625 C 8.753906 -6.078125 8.832031 -7.09375 8.84375 -7.9375 C 8.851562 -8.789062 8.78125 -9.363281 8.625 -9.65625 C 8.25 -9.613281 7.804688 -9.320312 7.296875 -8.78125 C 6.796875 -8.238281 6.265625 -7.53125 5.703125 -6.65625 C 5.140625 -5.789062 4.578125 -4.828125 4.015625 -3.765625 C 3.453125 -2.710938 2.941406 -1.644531 2.484375 -0.5625 C 2.410156 -0.382812 2.28125 -0.25 2.09375 -0.15625 C 1.90625 -0.0703125 1.710938 -0.0507812 1.515625 -0.09375 C 1.316406 -0.164062 1.160156 -0.28125 1.046875 -0.4375 C 0.941406 -0.601562 0.898438 -0.800781 0.921875 -1.03125 L 2.34375 -10.671875 C 2.382812 -10.898438 2.492188 -11.078125 2.671875 -11.203125 C 2.847656 -11.335938 3.046875 -11.382812 3.265625 -11.34375 C 3.515625 -11.320312 3.703125 -11.222656 3.828125 -11.046875 C 3.960938 -10.867188 4.007812 -10.660156 3.96875 -10.421875 L 3.3125 -5.984375 C 4.03125 -7.210938 4.691406 -8.191406 5.296875 -8.921875 C 5.910156 -9.648438 6.453125 -10.179688 6.921875 -10.515625 C 7.398438 -10.847656 7.800781 -11.0625 8.125 -11.15625 C 8.457031 -11.257812 8.703125 -11.300781 8.859375 -11.28125 C 9.273438 -11.25 9.617188 -11.0625 9.890625 -10.71875 C 10.171875 -10.363281 10.34375 -9.8125 10.40625 -9.0625 C 10.476562 -8.3125 10.484375 -7.503906 10.421875 -6.640625 C 10.921875 -7.566406 11.472656 -8.421875 12.078125 -9.203125 C 12.691406 -9.984375 13.328125 -10.578125 13.984375 -10.984375 C 14.648438 -11.398438 15.320312 -11.484375 16 -11.234375 Z M 16 -11.234375 "/></g></g></g><g fill="#545454" fill-opacity="1"><g transform="translate(69.100757, 26.016486)"><g><path d="M 13.65625 -22.84375 C 13.875 -22.84375 14.0625 -22.765625 14.21875 -22.609375 C 14.375 -22.460938 14.453125 -22.273438 14.453125 -22.046875 C 14.453125 -21.804688 14.375 -21.609375 14.21875 -21.453125 C 14.0625 -21.296875 13.875 -21.21875 13.65625 -21.21875 L 8.765625 -21.21875 L 5.515625 -1.15625 C 5.453125 -0.695312 5.191406 -0.46875 4.734375 -0.46875 C 4.679688 -0.46875 4.632812 -0.476562 4.59375 -0.5 C 4.375 -0.519531 4.195312 -0.625 4.0625 -0.8125 C 3.9375 -1 3.894531 -1.203125 3.9375 -1.421875 L 7.109375 -21.21875 L 2.484375 -21.21875 C 2.234375 -21.21875 2.03125 -21.296875 1.875 -21.453125 C 1.726562 -21.609375 1.65625 -21.804688 1.65625 -22.046875 C 1.65625 -22.273438 1.726562 -22.460938 1.875 -22.609375 C 2.03125 -22.765625 2.234375 -22.84375 2.484375 -22.84375 Z M 13.65625 -22.84375 "/></g></g></g><g fill="#545454" fill-opacity="1"><g transform="translate(81.798595, 26.016486)"><g><path d="M 10.375 -10.515625 C 10.550781 -10.378906 10.65625 -10.195312 10.6875 -9.96875 C 10.726562 -9.738281 10.679688 -9.535156 10.546875 -9.359375 C 10.410156 -9.179688 10.234375 -9.078125 10.015625 -9.046875 C 9.796875 -9.015625 9.597656 -9.0625 9.421875 -9.1875 C 9.398438 -9.1875 9.238281 -9.25 8.9375 -9.375 C 8.644531 -9.5 8.234375 -9.535156 7.703125 -9.484375 C 7.171875 -9.441406 6.566406 -9.179688 5.890625 -8.703125 C 5.535156 -8.453125 5.1875 -8.03125 4.84375 -7.4375 C 4.5 -6.84375 4.175781 -6.160156 3.875 -5.390625 C 3.582031 -4.617188 3.316406 -3.84375 3.078125 -3.0625 C 2.835938 -2.28125 2.648438 -1.578125 2.515625 -0.953125 C 2.421875 -0.535156 2.15625 -0.328125 1.71875 -0.328125 C 1.65625 -0.328125 1.597656 -0.335938 1.546875 -0.359375 C 1.347656 -0.378906 1.179688 -0.484375 1.046875 -0.671875 C 0.921875 -0.859375 0.878906 -1.066406 0.921875 -1.296875 L 2.40625 -10.875 C 2.4375 -11.09375 2.546875 -11.269531 2.734375 -11.40625 C 2.921875 -11.539062 3.125 -11.597656 3.34375 -11.578125 C 3.5625 -11.523438 3.734375 -11.410156 3.859375 -11.234375 C 3.992188 -11.066406 4.050781 -10.867188 4.03125 -10.640625 L 3.734375 -8.734375 C 4.128906 -9.328125 4.535156 -9.765625 4.953125 -10.046875 C 5.703125 -10.578125 6.40625 -10.90625 7.0625 -11.03125 C 7.726562 -11.164062 8.300781 -11.191406 8.78125 -11.109375 C 9.269531 -11.023438 9.648438 -10.90625 9.921875 -10.75 C 10.203125 -10.59375 10.351562 -10.515625 10.375 -10.515625 Z M 10.375 -10.515625 "/></g></g></g><g fill="#545454" fill-opacity="1"><g transform="translate(92.280928, 26.016486)"><g><path d="M 10.71875 -11.078125 C 10.914062 -11.015625 11.066406 -10.898438 11.171875 -10.734375 C 11.285156 -10.566406 11.332031 -10.382812 11.3125 -10.1875 L 9.859375 -0.5625 C 9.804688 -0.34375 9.691406 -0.164062 9.515625 -0.03125 C 9.335938 0.101562 9.140625 0.144531 8.921875 0.09375 C 8.679688 0.0703125 8.492188 -0.03125 8.359375 -0.21875 C 8.234375 -0.40625 8.191406 -0.609375 8.234375 -0.828125 L 8.953125 -5.546875 C 8.410156 -4.628906 7.800781 -3.734375 7.125 -2.859375 C 6.445312 -1.984375 5.742188 -1.265625 5.015625 -0.703125 C 4.296875 -0.148438 3.570312 0.125 2.84375 0.125 C 2.707031 0.125 2.585938 0.113281 2.484375 0.09375 C 1.691406 -0.0078125 1.160156 -0.515625 0.890625 -1.421875 C 0.691406 -2.128906 0.679688 -2.984375 0.859375 -3.984375 C 1.035156 -4.984375 1.40625 -6.003906 1.96875 -7.046875 C 2.53125 -8.097656 3.265625 -9.035156 4.171875 -9.859375 C 5.316406 -10.867188 6.460938 -11.273438 7.609375 -11.078125 C 8.003906 -11.015625 8.359375 -10.894531 8.671875 -10.71875 C 8.992188 -10.539062 9.273438 -10.335938 9.515625 -10.109375 C 9.585938 -10.265625 9.664062 -10.429688 9.75 -10.609375 C 9.945312 -11.054688 10.269531 -11.210938 10.71875 -11.078125 Z M 2.71875 -1.515625 C 3.238281 -1.453125 4.050781 -1.976562 5.15625 -3.09375 C 6.257812 -4.207031 7.460938 -6.03125 8.765625 -8.5625 C 8.609375 -8.738281 8.40625 -8.921875 8.15625 -9.109375 C 7.914062 -9.296875 7.644531 -9.410156 7.34375 -9.453125 C 7.25 -9.472656 7.160156 -9.484375 7.078125 -9.484375 C 6.523438 -9.484375 5.914062 -9.195312 5.25 -8.625 C 4.476562 -7.925781 3.863281 -7.140625 3.40625 -6.265625 C 2.945312 -5.390625 2.640625 -4.554688 2.484375 -3.765625 C 2.328125 -2.972656 2.316406 -2.347656 2.453125 -1.890625 C 2.472656 -1.835938 2.503906 -1.757812 2.546875 -1.65625 C 2.585938 -1.5625 2.644531 -1.515625 2.71875 -1.515625 Z M 2.71875 -1.515625 "/></g></g></g><g fill="#545454" fill-opacity="1"><g transform="translate(104.416619, 26.016486)"><g><path d="M 3.4375 -11.28125 C 3.65625 -11.226562 3.832031 -11.109375 3.96875 -10.921875 C 4.101562 -10.734375 4.144531 -10.53125 4.09375 -10.3125 L 2.34375 -0.359375 C 2.257812 0.0976562 1.992188 0.328125 1.546875 0.328125 C 1.503906 0.328125 1.453125 0.328125 1.390625 0.328125 C 1.171875 0.285156 1 0.171875 0.875 -0.015625 C 0.75 -0.203125 0.703125 -0.40625 0.734375 -0.625 L 2.484375 -10.609375 C 2.523438 -10.828125 2.640625 -11 2.828125 -11.125 C 3.015625 -11.25 3.21875 -11.300781 3.4375 -11.28125 Z M 4.09375 -17.65625 C 4.382812 -17.65625 4.632812 -17.554688 4.84375 -17.359375 C 5.050781 -17.160156 5.15625 -16.914062 5.15625 -16.625 C 5.15625 -16.34375 5.050781 -16.097656 4.84375 -15.890625 C 4.632812 -15.679688 4.382812 -15.578125 4.09375 -15.578125 C 3.8125 -15.578125 3.570312 -15.679688 3.375 -15.890625 C 3.175781 -16.097656 3.078125 -16.34375 3.078125 -16.625 C 3.078125 -16.914062 3.175781 -17.160156 3.375 -17.359375 C 3.570312 -17.554688 3.8125 -17.65625 4.09375 -17.65625 Z M 4.09375 -17.65625 "/></g></g></g><g fill="#545454" fill-opacity="1"><g transform="translate(109.244446, 26.016486)"><g><path d="M 5.15625 -22.6875 C 5.375 -22.632812 5.550781 -22.519531 5.6875 -22.34375 C 5.820312 -22.164062 5.863281 -21.96875 5.8125 -21.75 L 2.484375 -0.734375 C 2.410156 -0.265625 2.144531 -0.03125 1.6875 -0.03125 C 1.644531 -0.03125 1.597656 -0.0390625 1.546875 -0.0625 C 1.328125 -0.0820312 1.148438 -0.1875 1.015625 -0.375 C 0.890625 -0.5625 0.835938 -0.765625 0.859375 -0.984375 L 4.203125 -21.984375 C 4.242188 -22.203125 4.359375 -22.382812 4.546875 -22.53125 C 4.734375 -22.675781 4.9375 -22.726562 5.15625 -22.6875 Z M 5.15625 -22.6875 "/></g></g></g></g></g></svg>