<svg xmlns="http://www.w3.org/2000/svg" xmlns:xlink="http://www.w3.org/1999/xlink" width="500" zoomAndPan="magnify" viewBox="0 0 375 374.999991" height="500" preserveAspectRatio="xMidYMid meet" version="1.0"><defs><g/><clipPath id="c0201a0885"><path d="M 99 47 L 301.609375 47 L 301.609375 255.453125 L 99 255.453125 Z M 99 47 " clip-rule="nonzero"/></clipPath><clipPath id="3acb58f316"><path d="M 80 28.203125 L 119 28.203125 L 119 115 L 80 115 Z M 80 28.203125 " clip-rule="nonzero"/></clipPath><clipPath id="db48bbb83e"><path d="M 168.90625 151 L 174 151 L 174 157 L 168.90625 157 Z M 168.90625 151 " clip-rule="nonzero"/></clipPath><clipPath id="128e56053d"><path d="M 178 136.269531 L 249.90625 136.269531 L 249.90625 250.269531 L 178 250.269531 Z M 178 136.269531 " clip-rule="nonzero"/></clipPath><clipPath id="d51ef28b83"><rect x="0" width="251" y="0" height="28"/></clipPath><clipPath id="a22b61c390"><path d="M 0.320312 3 L 16 3 L 16 27 L 0.320312 27 Z M 0.320312 3 " clip-rule="nonzero"/></clipPath><clipPath id="9af4d825b0"><rect x="0" width="118" y="0" height="40"/></clipPath></defs><g clip-path="url(#c0201a0885)"><path fill="#67a516" d="M 208.691406 250.917969 C 161.582031 250.917969 122.191406 217.867188 112.460938 173.695312 C 110.925781 166.714844 110.160156 159.648438 110.15625 152.503906 L 110.15625 152.414062 C 110.148438 143.191406 111.414062 134.144531 113.949219 125.273438 C 113.949219 125.273438 124.785156 91.503906 168.214844 72.421875 C 168.214844 72.421875 131.3125 97.214844 121.246094 125.417969 C 144.59375 124.871094 185.085938 114.324219 210.761719 53.933594 C 211.582031 52.007812 212.386719 50.027344 213.175781 47.996094 C 209.90625 47.6875 206.597656 47.53125 203.242188 47.527344 C 145.804688 47.527344 99.246094 94.074219 99.246094 151.488281 C 99.246094 154.375 99.363281 157.238281 99.597656 160.074219 C 99.964844 164.609375 100.632812 169.097656 101.59375 173.546875 C 111.710938 220.359375 153.378906 255.445312 203.242188 255.445312 C 248.824219 255.445312 287.554688 226.128906 301.601562 185.332031 C 288.042969 223.546875 251.566406 250.917969 208.691406 250.917969 Z M 208.691406 250.917969 " fill-opacity="1" fill-rule="nonzero"/></g><path fill="#67a516" d="M 151.210938 217.671875 C 166.671875 197.820312 145.636719 171.574219 145.636719 171.574219 C 118.457031 200.070312 144.355469 225.078125 144.355469 225.078125 C 144.355469 225.078125 137.4375 207.289062 141.03125 189.976562 C 141.03125 189.976562 141.945312 213.40625 146.113281 222.855469 C 149.652344 231.082031 154.8125 239.378906 160.265625 239.027344 C 160.265625 239.027344 149.363281 225.472656 151.210938 217.675781 Z M 151.210938 217.671875 " fill-opacity="1" fill-rule="nonzero"/><g clip-path="url(#3acb58f316)"><path fill="#67a516" d="M 103.980469 84.519531 C 73.628906 71.640625 80.957031 28.199219 80.957031 28.199219 C 130.25 43.492188 116.550781 88.628906 116.550781 88.628906 C 116.550781 88.628906 113.125 63.855469 97.96875 46.324219 C 97.96875 46.324219 111.871094 73.730469 113.128906 87.203125 C 114.320312 98.875 113.703125 111.664062 107.242188 114.734375 C 107.242188 114.734375 111.070312 92.273438 103.984375 84.523438 Z M 103.980469 84.519531 " fill-opacity="1" fill-rule="nonzero"/></g><path fill="#67a516" d="M 172.660156 156.914062 C 172.4375 157.480469 172.375 158.085938 172.035156 158.382812 C 171.714844 158.664062 171.109375 158.617188 170.414062 158.753906 C 171.652344 159.269531 171.984375 160.074219 171.535156 161.273438 C 172.453125 160.222656 173.316406 160.378906 174.253906 161.191406 C 173.597656 160.007812 174.011719 159.191406 174.996094 158.574219 C 174.363281 158.492188 173.738281 158.578125 173.363281 158.308594 C 173.003906 158.054688 172.902344 157.433594 172.660156 156.914062 Z M 172.660156 156.914062 " fill-opacity="1" fill-rule="nonzero"/><g clip-path="url(#db48bbb83e)"><path fill="#67a516" d="M 172.492188 156.121094 C 172.125 154.5625 172.125 154.5625 173.144531 153.414062 C 172.601562 153.347656 172.003906 153.4375 171.652344 153.183594 C 171.304688 152.933594 171.203125 152.339844 170.960938 151.824219 C 170.757812 152.371094 170.707031 152.96875 170.382812 153.242188 C 170.058594 153.515625 169.460938 153.46875 168.933594 153.570312 C 169.308594 153.914062 169.824219 154.175781 169.96875 154.574219 C 170.113281 154.976562 169.894531 155.511719 169.832031 155.988281 C 170.746094 154.8125 171.597656 155.375 172.492188 156.121094 Z M 172.492188 156.121094 " fill-opacity="1" fill-rule="nonzero"/></g><g clip-path="url(#128e56053d)"><path fill="#67a516" d="M 249.566406 156.472656 C 249.929688 154.570312 249.183594 152.964844 247.660156 152.628906 C 247.011719 152.484375 246.253906 152.453125 245.632812 152.640625 C 243.792969 153.207031 241.914062 153.734375 240.195312 154.578125 C 234.023438 157.613281 228.792969 161.941406 224.011719 166.835938 C 221.054688 169.867188 218.371094 173.109375 216.183594 176.726562 C 213.710938 179.402344 213.167969 176.050781 213.167969 176.050781 L 213.167969 176.054688 C 213.160156 175.78125 213.144531 175.507812 213.125 175.234375 C 212.984375 173.480469 212.363281 171.867188 211.460938 170.347656 C 210.886719 169.382812 210.484375 168.34375 210.59375 167.15625 C 213.238281 166.671875 214.585938 164.8125 215.703125 162.664062 C 215.425781 163.382812 215.082031 164.066406 214.660156 164.699219 C 214.214844 165.367188 213.636719 165.953125 213.214844 166.636719 C 212.507812 167.78125 212.601562 169.058594 213.355469 169.835938 C 214.148438 170.65625 215.765625 170.878906 216.839844 170.308594 C 217.808594 169.800781 218.136719 168.859375 217.746094 168.109375 C 217.394531 168.355469 217.0625 168.730469 216.652344 168.84375 C 216.058594 169.011719 215.496094 168.78125 215.140625 168.210938 C 214.800781 167.667969 214.980469 167.160156 215.324219 166.714844 C 215.988281 165.855469 216.527344 164.953125 216.746094 163.859375 C 217.0625 162.265625 216.976562 160.691406 216.648438 159.125 C 216.503906 158.421875 216.300781 157.734375 216.125 157.039062 C 216.683594 157.945312 217.101562 158.910156 217.625 159.8125 C 218.375 161.105469 219.324219 162.210938 220.894531 162.558594 C 221.039062 162.589844 221.214844 162.722656 221.269531 162.851562 C 221.710938 163.945312 221.164062 164.914062 220.003906 165.195312 C 220.328125 165.304688 220.671875 165.414062 220.984375 165.351562 C 222.242188 165.105469 222.875 163.785156 222.558594 162.257812 C 222.496094 161.949219 222.574219 161.554688 222.71875 161.265625 C 223.035156 160.632812 223.132812 160.054688 222.753906 159.5625 C 222.519531 159.910156 222.320312 160.507812 222.066406 160.527344 C 221.503906 160.578125 220.808594 160.492188 220.375 160.171875 C 220.042969 159.925781 219.863281 159.226562 219.921875 158.761719 C 219.992188 158.183594 220.347656 157.632812 220.628906 157.09375 C 221.300781 155.8125 221.578125 154.496094 221.15625 153.0625 C 221.058594 152.726562 221.085938 152.292969 221.210938 151.96875 C 222.011719 149.882812 220.84375 147.804688 218.636719 147.582031 C 217.96875 147.515625 217.554688 147.269531 217.125 146.765625 C 215.84375 145.269531 214.183594 144.675781 212.25 145.105469 C 210.515625 145.492188 209.367188 146.605469 209.035156 148.34375 C 208.855469 149.269531 209.003906 150.257812 209.003906 151.226562 C 208.984375 151.230469 208.9375 151.246094 208.894531 151.242188 C 208.652344 151.214844 208.410156 151.167969 208.167969 151.144531 C 206.355469 150.957031 204.597656 151.015625 203.050781 152.171875 C 202.898438 152.285156 202.597656 152.269531 202.394531 152.207031 C 201.363281 151.914062 200.410156 152.046875 199.53125 152.664062 C 198.199219 153.597656 197.421875 154.882812 197.125 156.46875 C 196.890625 157.738281 197.003906 158.941406 197.9375 160.160156 C 198.046875 159.914062 198.136719 159.71875 198.246094 159.472656 C 198.421875 159.980469 198.476562 160.367188 198.667969 160.660156 C 199.46875 161.902344 199.519531 163.117188 198.703125 164.375 C 198.609375 164.519531 198.648438 164.960938 198.726562 164.992188 C 199.640625 165.335938 199.347656 166.449219 200.019531 166.972656 C 200.351562 167.230469 200.554688 167.722656 200.691406 168.148438 C 200.953125 168.976562 201.410156 169.359375 202.257812 169.183594 C 202.945312 169.039062 203.625 168.808594 204.277344 168.535156 C 204.78125 168.324219 205.097656 168.449219 205.253906 168.917969 C 205.507812 169.675781 205.730469 170.449219 205.910156 171.226562 C 205.949219 171.414062 205.824219 171.707031 205.679688 171.859375 C 204.5625 173.085938 203.421875 174.289062 202.28125 175.507812 C 201.441406 174.914062 201.449219 174.925781 200.613281 175.707031 C 200.367188 175.9375 200.027344 176.070312 199.773438 176.292969 C 199.253906 176.753906 198.730469 177.226562 198.269531 177.746094 C 197.898438 178.171875 197.101562 178.457031 196.804688 178.160156 C 194.613281 175.953125 192.417969 173.753906 190.242188 171.53125 C 189.292969 170.5625 188.519531 169.46875 188.085938 168.160156 C 187.792969 167.253906 187.15625 166.78125 186.226562 166.613281 C 185.46875 166.472656 184.730469 166.25 183.972656 166.0625 C 184.035156 165.679688 184.070312 165.414062 184.121094 165.152344 C 184.5625 162.820312 185.347656 160.671875 187.277344 159.109375 C 187.671875 158.796875 187.988281 158.714844 188.457031 158.960938 C 189.246094 159.371094 190.074219 159.710938 191.007812 160.136719 C 190.625 159.140625 190.320312 158.277344 189.960938 157.433594 C 189.753906 156.941406 189.828125 156.546875 190.148438 156.144531 C 190.648438 155.519531 191.128906 154.878906 191.714844 154.109375 C 190.742188 154.0625 189.921875 154 189.097656 153.984375 C 188.566406 153.976562 188.183594 153.792969 187.910156 153.308594 C 187.503906 152.578125 187.042969 151.878906 186.542969 151.070312 C 186.292969 151.9375 186.0625 152.664062 185.878906 153.394531 C 185.753906 153.902344 185.464844 154.179688 184.96875 154.324219 C 184.144531 154.5625 183.332031 154.84375 182.4375 155.132812 C 183.277344 155.8125 184.027344 156.398438 184.742188 157.023438 C 184.910156 157.171875 185.078125 157.488281 185.035156 157.683594 C 184.507812 160.109375 183.945312 162.527344 183.390625 164.945312 C 183.355469 164.9375 183.320312 164.945312 183.3125 164.929688 C 180.449219 160.976562 178.746094 156.664062 179.441406 151.695312 C 179.871094 148.644531 181.015625 145.949219 183.808594 144.226562 C 184.398438 143.863281 184.855469 143.726562 185.449219 144.1875 C 186.050781 144.652344 186.71875 145.023438 187.453125 145.5 C 187.191406 144.460938 187 143.554688 186.738281 142.667969 C 186.59375 142.175781 186.722656 141.828125 187.058594 141.488281 C 187.617188 140.917969 188.15625 140.332031 188.800781 139.644531 C 187.921875 139.511719 187.207031 139.386719 186.484375 139.296875 C 185.953125 139.234375 185.597656 139.019531 185.402344 138.480469 C 185.140625 137.757812 184.800781 137.0625 184.453125 136.261719 C 184.113281 137.039062 183.785156 137.71875 183.519531 138.421875 C 183.332031 138.925781 183 139.128906 182.492188 139.195312 C 181.707031 139.296875 180.929688 139.449219 180.027344 139.605469 C 180.59375 140.21875 181.015625 140.761719 181.527344 141.207031 C 182.199219 141.789062 182.207031 142.355469 181.828125 143.125 C 181.132812 144.523438 180.542969 145.976562 179.914062 147.40625 C 178.183594 151.316406 178.246094 155.285156 179.523438 159.296875 C 180.289062 161.695312 181.570312 163.820312 183.011719 165.828125 C 182.785156 166.011719 182.546875 166.148438 182.382812 166.34375 C 182.207031 166.546875 182.03125 166.796875 181.988281 167.050781 C 181.949219 167.289062 182.089844 167.554688 182.144531 167.8125 C 182.15625 167.878906 182.164062 167.957031 182.152344 168.027344 C 182 168.9375 182.238281 169.695312 182.988281 170.269531 C 183.09375 170.351562 183.210938 170.496094 183.21875 170.617188 C 183.289062 171.683594 183.335938 172.753906 183.394531 174.007812 C 182.832031 173.675781 182.523438 173.808594 182.441406 174.316406 C 182.277344 174.210938 182.160156 174.132812 182.054688 174.0625 C 181.820312 174.425781 181.53125 174.703125 181.441406 175.039062 C 181.125 176.175781 180.644531 177.34375 180.667969 178.492188 C 180.691406 179.90625 181.820312 180.707031 183.058594 181.296875 C 184.511719 181.984375 185.960938 182.691406 187.367188 183.46875 C 189.550781 184.671875 191.675781 185.992188 194.097656 186.683594 C 196.089844 187.253906 198.105469 187.640625 200.121094 186.527344 C 200.636719 188.335938 200.886719 190.125 199.84375 191.792969 C 199.0625 193.058594 198.191406 194.277344 197.25 195.425781 C 194.199219 199.160156 191.96875 203.289062 190.941406 208.03125 C 190.457031 210.273438 190.457031 212.410156 192.214844 214.203125 C 192.546875 214.542969 192.828125 214.65625 193.21875 214.378906 C 193.898438 213.90625 194.570312 213.425781 195.257812 212.9375 C 195.613281 214.023438 195.972656 215.117188 196.332031 216.210938 C 196.476562 216.214844 196.472656 216.214844 196.617188 216.214844 C 196.894531 215.472656 197.167969 214.730469 197.445312 213.980469 C 197.871094 214.546875 198.246094 215.117188 198.691406 215.628906 C 199.59375 216.664062 199.894531 216.65625 200.867188 215.710938 C 201.046875 215.535156 201.222656 215.355469 201.433594 215.152344 C 201.789062 215.8125 202.089844 216.375 202.457031 217.054688 C 202.90625 216.277344 203.277344 215.636719 203.566406 215.132812 C 204.28125 216.796875 205 218.46875 205.714844 220.144531 C 206.285156 221.488281 206.917969 222.8125 207.402344 224.195312 C 208.191406 226.453125 208.847656 228.757812 209.621094 231.023438 C 211.199219 235.65625 212.605469 240.296875 211.59375 245.300781 C 211.28125 246.839844 211.464844 248.511719 210.03125 249.644531 C 209.898438 249.75 209.800781 250.136719 209.867188 250.207031 C 210.015625 250.355469 210.300781 250.464844 210.507812 250.4375 C 212.28125 250.195312 213.605469 249.304688 214.335938 247.636719 C 214.574219 247.097656 214.679688 246.503906 214.953125 245.992188 C 215.410156 245.125 215.957031 244.308594 216.464844 243.46875 L 216.652344 243.570312 C 216.757812 244.417969 216.863281 245.269531 216.972656 246.117188 C 217.070312 246.132812 217.171875 246.15625 217.273438 246.171875 C 217.386719 245.941406 217.582031 245.714844 217.605469 245.472656 C 217.679688 244.671875 217.570312 243.832031 217.753906 243.0625 C 218.074219 241.675781 217.664062 240.636719 216.625 239.738281 C 215.464844 238.726562 214.984375 237.386719 214.957031 235.882812 C 214.921875 234.191406 214.972656 232.503906 214.910156 230.820312 C 214.847656 229.207031 214.800781 227.585938 214.535156 226.003906 C 214.121094 223.53125 212.886719 221.371094 211.707031 219.195312 C 211.3125 218.46875 211.117188 217.632812 210.933594 217.125 C 211.621094 216.34375 212.09375 215.804688 212.546875 215.292969 C 213.8125 216.5 215.078125 217.6875 216.324219 218.894531 C 216.851562 219.402344 217.386719 219.921875 217.824219 220.5 C 218.644531 221.582031 219.648438 222.40625 220.878906 222.953125 C 222.902344 223.851562 224.605469 225.183594 226.128906 226.765625 C 226.554688 227.207031 226.992188 227.632812 227.4375 228.054688 C 230.609375 231.039062 233.953125 233.84375 236.78125 237.179688 C 237.324219 237.820312 237.878906 238.457031 238.453125 239.125 C 239.921875 240.425781 241.292969 241.304688 243.296875 242.316406 C 244.746094 243.046875 246.109375 242.96875 247.433594 242.050781 C 248.269531 241.476562 248.304688 241.101562 247.519531 240.484375 C 247.0625 240.128906 246.5625 239.828125 246.082031 239.503906 C 245.097656 238.984375 244.347656 238.304688 244.011719 237.972656 C 243.890625 237.851562 243.792969 237.710938 243.71875 237.558594 C 243.714844 237.550781 243.714844 237.546875 243.710938 237.542969 C 243.40625 236.917969 243.796875 236.175781 244.484375 236.070312 C 245.042969 235.984375 245.53125 235.941406 245.53125 235.941406 C 245.550781 235.546875 245.238281 235.300781 245.238281 235.300781 C 244.742188 235.457031 243.367188 235.605469 242.859375 235.582031 C 242.601562 235.570312 242.351562 235.507812 242.105469 235.4375 C 241.921875 235.386719 241.730469 235.378906 241.542969 235.421875 C 241.542969 235.421875 241.542969 235.417969 241.542969 235.417969 L 241.539062 235.421875 C 241.382812 235.453125 241.230469 235.519531 241.09375 235.621094 C 240.78125 235.847656 240.570312 236.078125 240.570312 236.078125 C 238.820312 235.800781 237.71875 232.589844 237.71875 232.589844 C 236.859375 231.109375 236 229.628906 235.101562 228.171875 C 232.769531 224.40625 229.929688 221.15625 225.746094 219.367188 C 224.605469 218.875 223.6875 218.152344 222.960938 217.171875 C 222.4375 216.464844 222.023438 215.667969 221.445312 215.011719 C 220.460938 213.886719 220.804688 212.742188 221.175781 211.550781 C 221.910156 212.089844 222.613281 212.609375 223.320312 213.128906 C 223.402344 213.078125 223.410156 213.074219 223.496094 213.023438 C 223.402344 212.289062 223.308594 211.550781 223.222656 210.875 C 223.976562 211.167969 224.71875 211.460938 225.457031 211.753906 C 225.890625 211.925781 226.136719 211.730469 226.347656 211.371094 C 226.875 210.449219 227.0625 209.472656 226.902344 208.382812 C 227.742188 208.785156 228.523438 209.160156 229.140625 209.457031 C 229.417969 208.847656 229.675781 208.328125 229.882812 207.792969 C 230.039062 207.386719 230.199219 206.960938 230.230469 206.539062 C 230.320312 205.402344 229.746094 204.472656 229.023438 203.710938 C 227.273438 201.875 225.535156 200 223.613281 198.347656 C 219.820312 195.097656 215.507812 192.730469 210.667969 191.394531 C 209.171875 190.980469 208.660156 190.257812 209.203125 188.824219 C 209.566406 187.859375 210.214844 187.003906 210.6875 186.074219 C 211.324219 184.832031 211.9375 183.574219 212.550781 182.316406 C 214.238281 180.695312 215.242188 182.46875 215.289062 182.550781 C 216.003906 184.054688 216.710938 185.566406 217.507812 187.03125 C 218.144531 188.207031 218.875 189.34375 219.664062 190.421875 C 220.398438 191.425781 221.425781 191.789062 222.710938 191.554688 C 223.515625 191.40625 224.371094 191.402344 225.1875 191.488281 C 226.914062 191.664062 227.628906 192.6875 227.3125 194.378906 C 227.25 194.71875 227.167969 195.050781 227.085938 195.4375 C 228.917969 194.816406 229.703125 193.386719 229.558594 191.078125 C 231.714844 190.707031 234.039062 191.898438 234.964844 193.839844 C 235.292969 194.519531 235.59375 195.222656 236 195.859375 C 236.984375 197.390625 238.882812 198.054688 240.488281 197.488281 C 241.632812 197.082031 242.085938 195.984375 241.460938 194.933594 C 241.582031 195.609375 241.507812 196.117188 240.84375 196.371094 C 239.960938 196.710938 239.179688 196.464844 238.699219 195.652344 C 238.097656 194.625 238 193.519531 238.265625 192.386719 C 238.882812 189.75 238.011719 187.632812 236.074219 185.859375 C 234.238281 184.179688 232.046875 183.109375 229.761719 182.214844 C 228.660156 181.785156 227.535156 181.40625 226.296875 180.957031 C 227.988281 180.832031 229.542969 180.765625 231.082031 180.59375 C 233.378906 180.335938 235.632812 179.875 237.585938 178.53125 C 239.296875 177.347656 239.558594 176.230469 238.660156 174.480469 C 239.660156 173.839844 240.722656 173.277344 241.648438 172.546875 C 243.550781 171.035156 243.957031 169.417969 243.152344 167.246094 C 243.90625 166.601562 244.691406 166.011719 245.375 165.324219 C 246.222656 164.476562 246.878906 163.472656 246.792969 162.214844 C 246.757812 161.660156 246.933594 161.304688 247.261719 160.917969 C 248.363281 159.613281 249.234375 158.183594 249.566406 156.472656 Z M 192.003906 181.917969 C 190.160156 181.445312 188.339844 180.886719 186.511719 180.363281 C 185.863281 180.175781 185.542969 179.800781 185.453125 179.070312 C 185.339844 178.183594 185.097656 177.292969 184.765625 176.460938 C 183.980469 174.464844 184.09375 172.378906 183.945312 170.121094 C 184.292969 170.390625 184.542969 170.550781 184.746094 170.753906 C 185.355469 171.359375 186.035156 171.761719 186.925781 171.84375 C 187.238281 171.871094 187.605469 172.136719 187.800781 172.402344 C 188.8125 173.78125 189.808594 175.171875 190.757812 176.59375 C 192.144531 178.667969 193.542969 180.722656 195.335938 182.554688 C 194.222656 182.347656 193.097656 182.199219 192.003906 181.917969 Z M 192.003906 181.917969 " fill-opacity="1" fill-rule="nonzero"/></g><g transform="matrix(1, 0, 0, 1, 62, 302)"><g clip-path="url(#d51ef28b83)"><g fill="#426810" fill-opacity="1"><g transform="translate(0.391768, 18.401988)"><g><path d="M 11.609375 -8.359375 C 11.773438 -8.335938 11.90625 -8.257812 12 -8.125 C 12.09375 -8 12.132812 -7.859375 12.125 -7.703125 C 12.125 -7.679688 12.09375 -7.492188 12.03125 -7.140625 C 11.96875 -6.785156 11.867188 -6.332031 11.734375 -5.78125 C 11.609375 -5.226562 11.441406 -4.644531 11.234375 -4.03125 C 11.035156 -3.414062 10.785156 -2.820312 10.484375 -2.25 C 10.179688 -1.6875 9.832031 -1.210938 9.4375 -0.828125 C 9.039062 -0.453125 8.582031 -0.238281 8.0625 -0.1875 C 7.644531 -0.15625 7.28125 -0.296875 6.96875 -0.609375 C 6.695312 -0.898438 6.492188 -1.320312 6.359375 -1.875 C 6.234375 -2.4375 6.15625 -3.035156 6.125 -3.671875 C 5.65625 -2.703125 5.148438 -1.890625 4.609375 -1.234375 C 4.078125 -0.585938 3.5625 -0.191406 3.0625 -0.046875 C 2.925781 -0.015625 2.796875 0 2.671875 0 C 2.316406 0 2.019531 -0.128906 1.78125 -0.390625 C 1.488281 -0.679688 1.285156 -1.09375 1.171875 -1.625 C 1.066406 -2.15625 1.019531 -2.738281 1.03125 -3.375 C 1.039062 -4.007812 1.082031 -4.632812 1.15625 -5.25 C 1.226562 -5.863281 1.304688 -6.410156 1.390625 -6.890625 C 1.484375 -7.367188 1.554688 -7.703125 1.609375 -7.890625 C 1.640625 -8.054688 1.726562 -8.179688 1.875 -8.265625 C 2.019531 -8.359375 2.171875 -8.390625 2.328125 -8.359375 C 2.492188 -8.328125 2.617188 -8.238281 2.703125 -8.09375 C 2.796875 -7.945312 2.816406 -7.789062 2.765625 -7.625 C 2.648438 -7.09375 2.546875 -6.5 2.453125 -5.84375 C 2.359375 -5.1875 2.296875 -4.535156 2.265625 -3.890625 C 2.234375 -3.253906 2.238281 -2.695312 2.28125 -2.21875 C 2.332031 -1.738281 2.445312 -1.40625 2.625 -1.21875 C 2.65625 -1.195312 2.695312 -1.195312 2.75 -1.21875 C 3.050781 -1.300781 3.425781 -1.632812 3.875 -2.21875 C 4.320312 -2.8125 4.765625 -3.59375 5.203125 -4.5625 C 5.648438 -5.539062 6.015625 -6.648438 6.296875 -7.890625 C 6.328125 -8.054688 6.410156 -8.179688 6.546875 -8.265625 C 6.679688 -8.359375 6.832031 -8.390625 7 -8.359375 C 7.144531 -8.335938 7.265625 -8.257812 7.359375 -8.125 C 7.453125 -8 7.492188 -7.859375 7.484375 -7.703125 C 7.421875 -7.148438 7.367188 -6.550781 7.328125 -5.90625 C 7.296875 -5.269531 7.289062 -4.644531 7.3125 -4.03125 C 7.332031 -3.414062 7.378906 -2.875 7.453125 -2.40625 C 7.535156 -1.945312 7.660156 -1.628906 7.828125 -1.453125 C 7.867188 -1.410156 7.914062 -1.394531 7.96875 -1.40625 C 8.3125 -1.4375 8.640625 -1.660156 8.953125 -2.078125 C 9.265625 -2.503906 9.554688 -3.039062 9.828125 -3.6875 C 10.097656 -4.34375 10.328125 -5.035156 10.515625 -5.765625 C 10.710938 -6.503906 10.851562 -7.195312 10.9375 -7.84375 C 10.945312 -8.007812 11.019531 -8.144531 11.15625 -8.25 C 11.300781 -8.351562 11.453125 -8.390625 11.609375 -8.359375 Z M 11.609375 -8.359375 "/></g></g></g><g fill="#426810" fill-opacity="1"><g transform="translate(12.707156, 18.401988)"><g><path d="M 7.28125 -7.890625 C 7.507812 -7.765625 7.703125 -7.460938 7.859375 -6.984375 C 8.015625 -6.503906 8.070312 -5.742188 8.03125 -4.703125 C 7.988281 -3.660156 7.78125 -2.226562 7.40625 -0.40625 C 7.375 -0.25 7.289062 -0.117188 7.15625 -0.015625 C 7.019531 0.078125 6.867188 0.109375 6.703125 0.078125 C 6.546875 0.046875 6.421875 -0.0351562 6.328125 -0.171875 C 6.242188 -0.316406 6.21875 -0.46875 6.25 -0.625 C 6.4375 -1.601562 6.582031 -2.539062 6.6875 -3.4375 C 6.800781 -4.332031 6.851562 -5.097656 6.84375 -5.734375 C 6.832031 -6.367188 6.769531 -6.75 6.65625 -6.875 C 6.457031 -6.988281 6.238281 -7.003906 6 -6.921875 C 5.613281 -6.773438 5.21875 -6.460938 4.8125 -5.984375 C 4.40625 -5.503906 4.003906 -4.925781 3.609375 -4.25 C 3.222656 -3.582031 2.867188 -2.898438 2.546875 -2.203125 C 2.222656 -1.515625 1.957031 -0.882812 1.75 -0.3125 C 1.65625 -0.0507812 1.46875 0.078125 1.1875 0.078125 C 1.144531 0.078125 1.097656 0.0664062 1.046875 0.046875 C 0.878906 0.015625 0.753906 -0.0625 0.671875 -0.1875 C 0.597656 -0.320312 0.578125 -0.46875 0.609375 -0.625 L 3.140625 -16.234375 C 3.171875 -16.390625 3.253906 -16.515625 3.390625 -16.609375 C 3.523438 -16.710938 3.675781 -16.75 3.84375 -16.71875 C 4 -16.6875 4.125 -16.601562 4.21875 -16.46875 C 4.320312 -16.34375 4.359375 -16.195312 4.328125 -16.03125 L 2.484375 -4.6875 C 2.921875 -5.4375 3.398438 -6.128906 3.921875 -6.765625 C 4.453125 -7.398438 5.007812 -7.828125 5.59375 -8.046875 C 6.1875 -8.253906 6.75 -8.203125 7.28125 -7.890625 Z M 7.28125 -7.890625 "/></g></g></g><g fill="#426810" fill-opacity="1"><g transform="translate(21.71901, 18.401988)"><g><path d="M 6.25 -2.328125 C 6.375 -2.429688 6.515625 -2.476562 6.671875 -2.46875 C 6.835938 -2.457031 6.976562 -2.390625 7.09375 -2.265625 C 7.207031 -2.128906 7.253906 -1.976562 7.234375 -1.8125 C 7.222656 -1.65625 7.148438 -1.519531 7.015625 -1.40625 C 6.660156 -1.101562 6.210938 -0.8125 5.671875 -0.53125 C 5.128906 -0.257812 4.523438 -0.125 3.859375 -0.125 C 3.671875 -0.125 3.476562 -0.140625 3.28125 -0.171875 C 2.375 -0.296875 1.6875 -0.75 1.21875 -1.53125 C 0.9375 -2 0.78125 -2.535156 0.75 -3.140625 C 0.738281 -3.179688 0.734375 -3.226562 0.734375 -3.28125 C 0.734375 -3.28125 0.738281 -3.285156 0.75 -3.296875 C 0.738281 -3.878906 0.84375 -4.488281 1.0625 -5.125 C 1.3125 -5.757812 1.691406 -6.332031 2.203125 -6.84375 C 2.722656 -7.363281 3.332031 -7.765625 4.03125 -8.046875 C 4.519531 -8.234375 4.984375 -8.335938 5.421875 -8.359375 C 5.867188 -8.390625 6.25 -8.320312 6.5625 -8.15625 C 7.125 -7.882812 7.429688 -7.457031 7.484375 -6.875 C 7.515625 -6.457031 7.394531 -6.019531 7.125 -5.5625 C 6.863281 -5.113281 6.472656 -4.6875 5.953125 -4.28125 C 5.160156 -3.695312 4.414062 -3.289062 3.71875 -3.0625 C 3.019531 -2.832031 2.453125 -2.703125 2.015625 -2.671875 C 2.078125 -2.472656 2.148438 -2.296875 2.234375 -2.140625 C 2.503906 -1.679688 2.910156 -1.421875 3.453125 -1.359375 C 4.035156 -1.265625 4.566406 -1.332031 5.046875 -1.5625 C 5.535156 -1.800781 5.9375 -2.054688 6.25 -2.328125 Z M 2.21875 -4.71875 C 2.101562 -4.4375 2.03125 -4.148438 2 -3.859375 C 2.351562 -3.910156 2.816406 -4.03125 3.390625 -4.21875 C 3.960938 -4.40625 4.570312 -4.75 5.21875 -5.25 C 5.613281 -5.539062 5.890625 -5.820312 6.046875 -6.09375 C 6.210938 -6.375 6.296875 -6.601562 6.296875 -6.78125 C 6.273438 -6.8125 6.25 -6.859375 6.21875 -6.921875 C 6.1875 -6.984375 6.113281 -7.039062 6 -7.09375 C 5.914062 -7.144531 5.785156 -7.171875 5.609375 -7.171875 C 5.460938 -7.171875 5.289062 -7.148438 5.09375 -7.109375 C 4.90625 -7.066406 4.695312 -7.003906 4.46875 -6.921875 C 3.9375 -6.710938 3.472656 -6.410156 3.078125 -6.015625 C 2.679688 -5.628906 2.394531 -5.195312 2.21875 -4.71875 Z M 2.21875 -4.71875 "/></g></g></g><g fill="#426810" fill-opacity="1"><g transform="translate(29.929274, 18.401988)"><g><path d="M 7.625 -7.71875 C 7.757812 -7.625 7.835938 -7.492188 7.859375 -7.328125 C 7.878906 -7.160156 7.84375 -7.007812 7.75 -6.875 C 7.65625 -6.75 7.523438 -6.671875 7.359375 -6.640625 C 7.203125 -6.617188 7.054688 -6.65625 6.921875 -6.75 C 6.910156 -6.75 6.796875 -6.789062 6.578125 -6.875 C 6.359375 -6.96875 6.050781 -7 5.65625 -6.96875 C 5.269531 -6.9375 4.828125 -6.742188 4.328125 -6.390625 C 4.066406 -6.210938 3.8125 -5.90625 3.5625 -5.46875 C 3.3125 -5.03125 3.078125 -4.523438 2.859375 -3.953125 C 2.640625 -3.390625 2.441406 -2.820312 2.265625 -2.25 C 2.085938 -1.675781 1.945312 -1.160156 1.84375 -0.703125 C 1.78125 -0.398438 1.585938 -0.25 1.265625 -0.25 C 1.210938 -0.25 1.171875 -0.253906 1.140625 -0.265625 C 0.992188 -0.285156 0.867188 -0.363281 0.765625 -0.5 C 0.671875 -0.632812 0.644531 -0.785156 0.6875 -0.953125 L 1.78125 -8 C 1.789062 -8.15625 1.863281 -8.28125 2 -8.375 C 2.144531 -8.476562 2.296875 -8.519531 2.453125 -8.5 C 2.617188 -8.46875 2.75 -8.382812 2.84375 -8.25 C 2.9375 -8.125 2.976562 -7.984375 2.96875 -7.828125 L 2.75 -6.421875 C 3.039062 -6.859375 3.335938 -7.179688 3.640625 -7.390625 C 4.191406 -7.773438 4.707031 -8.015625 5.1875 -8.109375 C 5.675781 -8.210938 6.097656 -8.226562 6.453125 -8.15625 C 6.816406 -8.09375 7.097656 -8.003906 7.296875 -7.890625 C 7.503906 -7.773438 7.613281 -7.71875 7.625 -7.71875 Z M 7.625 -7.71875 "/></g></g></g><g fill="#426810" fill-opacity="1"><g transform="translate(37.629435, 18.401988)"><g><path d="M 6.25 -2.328125 C 6.375 -2.429688 6.515625 -2.476562 6.671875 -2.46875 C 6.835938 -2.457031 6.976562 -2.390625 7.09375 -2.265625 C 7.207031 -2.128906 7.253906 -1.976562 7.234375 -1.8125 C 7.222656 -1.65625 7.148438 -1.519531 7.015625 -1.40625 C 6.660156 -1.101562 6.210938 -0.8125 5.671875 -0.53125 C 5.128906 -0.257812 4.523438 -0.125 3.859375 -0.125 C 3.671875 -0.125 3.476562 -0.140625 3.28125 -0.171875 C 2.375 -0.296875 1.6875 -0.75 1.21875 -1.53125 C 0.9375 -2 0.78125 -2.535156 0.75 -3.140625 C 0.738281 -3.179688 0.734375 -3.226562 0.734375 -3.28125 C 0.734375 -3.28125 0.738281 -3.285156 0.75 -3.296875 C 0.738281 -3.878906 0.84375 -4.488281 1.0625 -5.125 C 1.3125 -5.757812 1.691406 -6.332031 2.203125 -6.84375 C 2.722656 -7.363281 3.332031 -7.765625 4.03125 -8.046875 C 4.519531 -8.234375 4.984375 -8.335938 5.421875 -8.359375 C 5.867188 -8.390625 6.25 -8.320312 6.5625 -8.15625 C 7.125 -7.882812 7.429688 -7.457031 7.484375 -6.875 C 7.515625 -6.457031 7.394531 -6.019531 7.125 -5.5625 C 6.863281 -5.113281 6.472656 -4.6875 5.953125 -4.28125 C 5.160156 -3.695312 4.414062 -3.289062 3.71875 -3.0625 C 3.019531 -2.832031 2.453125 -2.703125 2.015625 -2.671875 C 2.078125 -2.472656 2.148438 -2.296875 2.234375 -2.140625 C 2.503906 -1.679688 2.910156 -1.421875 3.453125 -1.359375 C 4.035156 -1.265625 4.566406 -1.332031 5.046875 -1.5625 C 5.535156 -1.800781 5.9375 -2.054688 6.25 -2.328125 Z M 2.21875 -4.71875 C 2.101562 -4.4375 2.03125 -4.148438 2 -3.859375 C 2.351562 -3.910156 2.816406 -4.03125 3.390625 -4.21875 C 3.960938 -4.40625 4.570312 -4.75 5.21875 -5.25 C 5.613281 -5.539062 5.890625 -5.820312 6.046875 -6.09375 C 6.210938 -6.375 6.296875 -6.601562 6.296875 -6.78125 C 6.273438 -6.8125 6.25 -6.859375 6.21875 -6.921875 C 6.1875 -6.984375 6.113281 -7.039062 6 -7.09375 C 5.914062 -7.144531 5.785156 -7.171875 5.609375 -7.171875 C 5.460938 -7.171875 5.289062 -7.148438 5.09375 -7.109375 C 4.90625 -7.066406 4.695312 -7.003906 4.46875 -6.921875 C 3.9375 -6.710938 3.472656 -6.410156 3.078125 -6.015625 C 2.679688 -5.628906 2.394531 -5.195312 2.21875 -4.71875 Z M 2.21875 -4.71875 "/></g></g></g><g fill="#426810" fill-opacity="1"><g transform="translate(45.8397, 18.401988)"><g/></g></g><g fill="#426810" fill-opacity="1"><g transform="translate(52.422474, 18.401988)"><g><path d="M 8.71875 -16.734375 C 8.882812 -16.703125 9.015625 -16.617188 9.109375 -16.484375 C 9.203125 -16.359375 9.234375 -16.21875 9.203125 -16.0625 L 6.859375 -0.625 C 6.785156 -0.289062 6.582031 -0.125 6.25 -0.125 C 6.21875 -0.125 6.191406 -0.125 6.171875 -0.125 C 5.992188 -0.132812 5.851562 -0.207031 5.75 -0.34375 C 5.65625 -0.488281 5.625 -0.640625 5.65625 -0.796875 L 6.046875 -3.28125 C 5.460938 -2.3125 4.847656 -1.539062 4.203125 -0.96875 C 3.554688 -0.40625 2.957031 -0.125 2.40625 -0.125 C 2.28125 -0.125 2.160156 -0.128906 2.046875 -0.140625 C 1.796875 -0.210938 1.53125 -0.363281 1.25 -0.59375 C 0.976562 -0.832031 0.785156 -1.21875 0.671875 -1.75 C 0.566406 -2.28125 0.632812 -3.023438 0.875 -3.984375 C 1 -4.503906 1.207031 -5.03125 1.5 -5.5625 C 1.789062 -6.09375 2.140625 -6.578125 2.546875 -7.015625 C 2.953125 -7.453125 3.382812 -7.796875 3.84375 -8.046875 C 4.3125 -8.304688 4.769531 -8.425781 5.21875 -8.40625 C 5.539062 -8.382812 5.828125 -8.3125 6.078125 -8.1875 C 6.335938 -8.0625 6.554688 -7.925781 6.734375 -7.78125 L 8.046875 -16.234375 C 8.054688 -16.390625 8.128906 -16.515625 8.265625 -16.609375 C 8.410156 -16.710938 8.5625 -16.753906 8.71875 -16.734375 Z M 2.328125 -1.3125 C 2.523438 -1.257812 2.84375 -1.40625 3.28125 -1.75 C 3.726562 -2.101562 4.21875 -2.664062 4.75 -3.4375 C 5.28125 -4.21875 5.78125 -5.21875 6.25 -6.4375 C 6.195312 -6.488281 6.15625 -6.546875 6.125 -6.609375 C 6.101562 -6.640625 6.019531 -6.738281 5.875 -6.90625 C 5.726562 -7.082031 5.488281 -7.1875 5.15625 -7.21875 C 5.132812 -7.21875 5.117188 -7.21875 5.109375 -7.21875 C 4.742188 -7.21875 4.347656 -7.035156 3.921875 -6.671875 C 3.503906 -6.316406 3.117188 -5.875 2.765625 -5.34375 C 2.410156 -4.8125 2.171875 -4.257812 2.046875 -3.6875 C 1.972656 -3.476562 1.910156 -3.195312 1.859375 -2.84375 C 1.816406 -2.488281 1.820312 -2.160156 1.875 -1.859375 C 1.9375 -1.554688 2.085938 -1.375 2.328125 -1.3125 Z M 2.328125 -1.3125 "/></g></g></g><g fill="#426810" fill-opacity="1"><g transform="translate(60.924224, 18.401988)"><g><path d="M 7.625 -7.71875 C 7.757812 -7.625 7.835938 -7.492188 7.859375 -7.328125 C 7.878906 -7.160156 7.84375 -7.007812 7.75 -6.875 C 7.65625 -6.75 7.523438 -6.671875 7.359375 -6.640625 C 7.203125 -6.617188 7.054688 -6.65625 6.921875 -6.75 C 6.910156 -6.75 6.796875 -6.789062 6.578125 -6.875 C 6.359375 -6.96875 6.050781 -7 5.65625 -6.96875 C 5.269531 -6.9375 4.828125 -6.742188 4.328125 -6.390625 C 4.066406 -6.210938 3.8125 -5.90625 3.5625 -5.46875 C 3.3125 -5.03125 3.078125 -4.523438 2.859375 -3.953125 C 2.640625 -3.390625 2.441406 -2.820312 2.265625 -2.25 C 2.085938 -1.675781 1.945312 -1.160156 1.84375 -0.703125 C 1.78125 -0.398438 1.585938 -0.25 1.265625 -0.25 C 1.210938 -0.25 1.171875 -0.253906 1.140625 -0.265625 C 0.992188 -0.285156 0.867188 -0.363281 0.765625 -0.5 C 0.671875 -0.632812 0.644531 -0.785156 0.6875 -0.953125 L 1.78125 -8 C 1.789062 -8.15625 1.863281 -8.28125 2 -8.375 C 2.144531 -8.476562 2.296875 -8.519531 2.453125 -8.5 C 2.617188 -8.46875 2.75 -8.382812 2.84375 -8.25 C 2.9375 -8.125 2.976562 -7.984375 2.96875 -7.828125 L 2.75 -6.421875 C 3.039062 -6.859375 3.335938 -7.179688 3.640625 -7.390625 C 4.191406 -7.773438 4.707031 -8.015625 5.1875 -8.109375 C 5.675781 -8.210938 6.097656 -8.226562 6.453125 -8.15625 C 6.816406 -8.09375 7.097656 -8.003906 7.296875 -7.890625 C 7.503906 -7.773438 7.613281 -7.71875 7.625 -7.71875 Z M 7.625 -7.71875 "/></g></g></g><g fill="#426810" fill-opacity="1"><g transform="translate(68.624385, 18.401988)"><g><path d="M 6.25 -2.328125 C 6.375 -2.429688 6.515625 -2.476562 6.671875 -2.46875 C 6.835938 -2.457031 6.976562 -2.390625 7.09375 -2.265625 C 7.207031 -2.128906 7.253906 -1.976562 7.234375 -1.8125 C 7.222656 -1.65625 7.148438 -1.519531 7.015625 -1.40625 C 6.660156 -1.101562 6.210938 -0.8125 5.671875 -0.53125 C 5.128906 -0.257812 4.523438 -0.125 3.859375 -0.125 C 3.671875 -0.125 3.476562 -0.140625 3.28125 -0.171875 C 2.375 -0.296875 1.6875 -0.75 1.21875 -1.53125 C 0.9375 -2 0.78125 -2.535156 0.75 -3.140625 C 0.738281 -3.179688 0.734375 -3.226562 0.734375 -3.28125 C 0.734375 -3.28125 0.738281 -3.285156 0.75 -3.296875 C 0.738281 -3.878906 0.84375 -4.488281 1.0625 -5.125 C 1.3125 -5.757812 1.691406 -6.332031 2.203125 -6.84375 C 2.722656 -7.363281 3.332031 -7.765625 4.03125 -8.046875 C 4.519531 -8.234375 4.984375 -8.335938 5.421875 -8.359375 C 5.867188 -8.390625 6.25 -8.320312 6.5625 -8.15625 C 7.125 -7.882812 7.429688 -7.457031 7.484375 -6.875 C 7.515625 -6.457031 7.394531 -6.019531 7.125 -5.5625 C 6.863281 -5.113281 6.472656 -4.6875 5.953125 -4.28125 C 5.160156 -3.695312 4.414062 -3.289062 3.71875 -3.0625 C 3.019531 -2.832031 2.453125 -2.703125 2.015625 -2.671875 C 2.078125 -2.472656 2.148438 -2.296875 2.234375 -2.140625 C 2.503906 -1.679688 2.910156 -1.421875 3.453125 -1.359375 C 4.035156 -1.265625 4.566406 -1.332031 5.046875 -1.5625 C 5.535156 -1.800781 5.9375 -2.054688 6.25 -2.328125 Z M 2.21875 -4.71875 C 2.101562 -4.4375 2.03125 -4.148438 2 -3.859375 C 2.351562 -3.910156 2.816406 -4.03125 3.390625 -4.21875 C 3.960938 -4.40625 4.570312 -4.75 5.21875 -5.25 C 5.613281 -5.539062 5.890625 -5.820312 6.046875 -6.09375 C 6.210938 -6.375 6.296875 -6.601562 6.296875 -6.78125 C 6.273438 -6.8125 6.25 -6.859375 6.21875 -6.921875 C 6.1875 -6.984375 6.113281 -7.039062 6 -7.09375 C 5.914062 -7.144531 5.785156 -7.171875 5.609375 -7.171875 C 5.460938 -7.171875 5.289062 -7.148438 5.09375 -7.109375 C 4.90625 -7.066406 4.695312 -7.003906 4.46875 -6.921875 C 3.9375 -6.710938 3.472656 -6.410156 3.078125 -6.015625 C 2.679688 -5.628906 2.394531 -5.195312 2.21875 -4.71875 Z M 2.21875 -4.71875 "/></g></g></g><g fill="#426810" fill-opacity="1"><g transform="translate(76.83465, 18.401988)"><g><path d="M 7.875 -8.140625 C 8.019531 -8.085938 8.128906 -8 8.203125 -7.875 C 8.285156 -7.757812 8.320312 -7.628906 8.3125 -7.484375 L 7.234375 -0.40625 C 7.203125 -0.25 7.117188 -0.117188 6.984375 -0.015625 C 6.859375 0.078125 6.71875 0.109375 6.5625 0.078125 C 6.382812 0.0546875 6.242188 -0.0195312 6.140625 -0.15625 C 6.046875 -0.289062 6.015625 -0.441406 6.046875 -0.609375 L 6.578125 -4.078125 C 6.179688 -3.398438 5.734375 -2.738281 5.234375 -2.09375 C 4.742188 -1.457031 4.226562 -0.929688 3.6875 -0.515625 C 3.15625 -0.109375 2.625 0.09375 2.09375 0.09375 C 1.988281 0.09375 1.898438 0.0859375 1.828125 0.078125 C 1.242188 -0.00390625 0.851562 -0.378906 0.65625 -1.046875 C 0.507812 -1.566406 0.5 -2.191406 0.625 -2.921875 C 0.757812 -3.660156 1.03125 -4.414062 1.4375 -5.1875 C 1.851562 -5.957031 2.394531 -6.640625 3.0625 -7.234375 C 3.90625 -7.984375 4.75 -8.285156 5.59375 -8.140625 C 5.882812 -8.085938 6.144531 -7.992188 6.375 -7.859375 C 6.613281 -7.734375 6.820312 -7.59375 7 -7.4375 C 7.050781 -7.550781 7.109375 -7.671875 7.171875 -7.796875 C 7.316406 -8.117188 7.550781 -8.234375 7.875 -8.140625 Z M 2 -1.125 C 2.382812 -1.070312 2.976562 -1.453125 3.78125 -2.265625 C 4.59375 -3.085938 5.476562 -4.429688 6.4375 -6.296875 C 6.320312 -6.421875 6.175781 -6.550781 6 -6.6875 C 5.820312 -6.832031 5.617188 -6.921875 5.390625 -6.953125 C 5.328125 -6.960938 5.265625 -6.96875 5.203125 -6.96875 C 4.796875 -6.96875 4.347656 -6.757812 3.859375 -6.34375 C 3.296875 -5.820312 2.84375 -5.238281 2.5 -4.59375 C 2.164062 -3.957031 1.941406 -3.347656 1.828125 -2.765625 C 1.710938 -2.179688 1.703125 -1.722656 1.796875 -1.390625 C 1.816406 -1.359375 1.84375 -1.304688 1.875 -1.234375 C 1.90625 -1.160156 1.945312 -1.125 2 -1.125 Z M 2 -1.125 "/></g></g></g><g fill="#426810" fill-opacity="1"><g transform="translate(85.749341, 18.401988)"><g><path d="M 11.765625 -8.265625 C 12.890625 -7.867188 13.035156 -5.300781 12.203125 -0.5625 C 12.148438 -0.21875 11.953125 -0.046875 11.609375 -0.046875 C 11.578125 -0.046875 11.546875 -0.0546875 11.515625 -0.078125 C 11.359375 -0.0859375 11.226562 -0.160156 11.125 -0.296875 C 11.03125 -0.441406 11 -0.59375 11.03125 -0.75 C 11.195312 -1.726562 11.320312 -2.671875 11.40625 -3.578125 C 11.5 -4.492188 11.535156 -5.269531 11.515625 -5.90625 C 11.503906 -6.550781 11.441406 -6.960938 11.328125 -7.140625 C 11.046875 -7.191406 10.664062 -6.957031 10.1875 -6.4375 C 9.707031 -5.914062 9.191406 -5.15625 8.640625 -4.15625 C 8.097656 -3.164062 7.566406 -1.972656 7.046875 -0.578125 C 6.984375 -0.429688 6.878906 -0.320312 6.734375 -0.25 C 6.597656 -0.175781 6.457031 -0.15625 6.3125 -0.1875 C 6.15625 -0.238281 6.035156 -0.332031 5.953125 -0.46875 C 5.867188 -0.613281 5.84375 -0.757812 5.875 -0.90625 C 6.070312 -1.820312 6.222656 -2.71875 6.328125 -3.59375 C 6.429688 -4.46875 6.488281 -5.21875 6.5 -5.84375 C 6.507812 -6.46875 6.457031 -6.882812 6.34375 -7.09375 C 6.0625 -7.0625 5.734375 -6.847656 5.359375 -6.453125 C 4.992188 -6.054688 4.601562 -5.535156 4.1875 -4.890625 C 3.78125 -4.253906 3.367188 -3.546875 2.953125 -2.765625 C 2.535156 -1.992188 2.160156 -1.207031 1.828125 -0.40625 C 1.773438 -0.28125 1.679688 -0.1875 1.546875 -0.125 C 1.410156 -0.0625 1.269531 -0.046875 1.125 -0.078125 C 0.976562 -0.117188 0.863281 -0.203125 0.78125 -0.328125 C 0.695312 -0.453125 0.664062 -0.59375 0.6875 -0.75 L 1.71875 -7.84375 C 1.757812 -8.007812 1.84375 -8.140625 1.96875 -8.234375 C 2.09375 -8.328125 2.238281 -8.359375 2.40625 -8.328125 C 2.582031 -8.316406 2.71875 -8.242188 2.8125 -8.109375 C 2.914062 -7.984375 2.953125 -7.832031 2.921875 -7.65625 L 2.421875 -4.390625 C 2.960938 -5.304688 3.453125 -6.03125 3.890625 -6.5625 C 4.335938 -7.09375 4.734375 -7.476562 5.078125 -7.71875 C 5.429688 -7.96875 5.726562 -8.128906 5.96875 -8.203125 C 6.21875 -8.273438 6.398438 -8.300781 6.515625 -8.28125 C 6.816406 -8.269531 7.066406 -8.132812 7.265625 -7.875 C 7.472656 -7.613281 7.597656 -7.207031 7.640625 -6.65625 C 7.691406 -6.101562 7.695312 -5.515625 7.65625 -4.890625 C 8.03125 -5.566406 8.4375 -6.191406 8.875 -6.765625 C 9.320312 -7.335938 9.785156 -7.773438 10.265625 -8.078125 C 10.753906 -8.378906 11.253906 -8.441406 11.765625 -8.265625 Z M 11.765625 -8.265625 "/></g></g></g><g fill="#426810" fill-opacity="1"><g transform="translate(99.473601, 18.401988)"><g><path d="M 2.84375 -6.90625 C 2.675781 -6.820312 2.566406 -6.734375 2.515625 -6.640625 C 2.472656 -6.554688 2.453125 -6.472656 2.453125 -6.390625 C 2.398438 -6.128906 2.523438 -5.890625 2.828125 -5.671875 C 3.140625 -5.453125 3.644531 -5.191406 4.34375 -4.890625 C 4.945312 -4.628906 5.398438 -4.347656 5.703125 -4.046875 C 6.015625 -3.742188 6.226562 -3.453125 6.34375 -3.171875 C 6.457031 -2.898438 6.519531 -2.675781 6.53125 -2.5 C 6.582031 -1.800781 6.304688 -1.257812 5.703125 -0.875 C 5.160156 -0.53125 4.554688 -0.359375 3.890625 -0.359375 C 3.578125 -0.359375 3.285156 -0.394531 3.015625 -0.46875 C 1.972656 -0.738281 1.1875 -1.390625 0.65625 -2.421875 C 0.570312 -2.566406 0.554688 -2.722656 0.609375 -2.890625 C 0.660156 -3.054688 0.757812 -3.171875 0.90625 -3.234375 C 1.050781 -3.316406 1.203125 -3.332031 1.359375 -3.28125 C 1.523438 -3.226562 1.640625 -3.128906 1.703125 -2.984375 C 2.085938 -2.253906 2.617188 -1.800781 3.296875 -1.625 C 3.929688 -1.46875 4.515625 -1.554688 5.046875 -1.890625 C 5.265625 -2.023438 5.363281 -2.195312 5.34375 -2.40625 C 5.332031 -2.644531 5.195312 -2.882812 4.9375 -3.125 C 4.675781 -3.375 4.316406 -3.597656 3.859375 -3.796875 C 3.441406 -3.984375 3.015625 -4.191406 2.578125 -4.421875 C 2.148438 -4.660156 1.800781 -4.953125 1.53125 -5.296875 C 1.269531 -5.648438 1.179688 -6.078125 1.265625 -6.578125 C 1.359375 -7.191406 1.695312 -7.644531 2.28125 -7.9375 C 2.769531 -8.195312 3.332031 -8.316406 3.96875 -8.296875 C 4.613281 -8.273438 5.144531 -8.164062 5.5625 -7.96875 C 6.226562 -7.644531 6.722656 -7.28125 7.046875 -6.875 C 7.140625 -6.75 7.175781 -6.601562 7.15625 -6.4375 C 7.132812 -6.28125 7.054688 -6.148438 6.921875 -6.046875 C 6.796875 -5.929688 6.648438 -5.882812 6.484375 -5.90625 C 6.328125 -5.9375 6.195312 -6.015625 6.09375 -6.140625 C 6.019531 -6.222656 5.90625 -6.328125 5.75 -6.453125 C 5.59375 -6.585938 5.359375 -6.726562 5.046875 -6.875 C 4.773438 -7.007812 4.410156 -7.082031 3.953125 -7.09375 C 3.503906 -7.113281 3.132812 -7.050781 2.84375 -6.90625 Z M 2.84375 -6.90625 "/></g></g></g><g fill="#426810" fill-opacity="1"><g transform="translate(107.100878, 18.401988)"><g/></g></g><g fill="#426810" fill-opacity="1"><g transform="translate(113.683652, 18.401988)"><g><path d="M 7 -8.4375 C 7.15625 -8.4375 7.289062 -8.378906 7.40625 -8.265625 C 7.519531 -8.148438 7.578125 -8.007812 7.578125 -7.84375 C 7.578125 -7.664062 7.519531 -7.519531 7.40625 -7.40625 C 7.289062 -7.289062 7.15625 -7.234375 7 -7.234375 L 4.78125 -7.234375 L 3.640625 -0.703125 C 3.578125 -0.359375 3.375 -0.1875 3.03125 -0.1875 C 3 -0.1875 2.96875 -0.195312 2.9375 -0.21875 C 2.78125 -0.238281 2.648438 -0.316406 2.546875 -0.453125 C 2.453125 -0.585938 2.421875 -0.738281 2.453125 -0.90625 L 3.578125 -7.234375 L 1.5 -7.234375 C 1.34375 -7.234375 1.207031 -7.289062 1.09375 -7.40625 C 0.976562 -7.519531 0.921875 -7.664062 0.921875 -7.84375 C 0.921875 -8.007812 0.976562 -8.148438 1.09375 -8.265625 C 1.207031 -8.378906 1.34375 -8.4375 1.5 -8.4375 L 3.796875 -8.4375 L 5.203125 -16.46875 C 5.234375 -16.632812 5.316406 -16.765625 5.453125 -16.859375 C 5.585938 -16.953125 5.738281 -16.984375 5.90625 -16.953125 C 6.0625 -16.921875 6.1875 -16.835938 6.28125 -16.703125 C 6.382812 -16.578125 6.421875 -16.425781 6.390625 -16.25 L 5 -8.4375 Z M 7 -8.4375 "/></g></g></g><g fill="#426810" fill-opacity="1"><g transform="translate(120.970871, 18.401988)"><g><path d="M 7.875 -8.140625 C 8.019531 -8.085938 8.128906 -8 8.203125 -7.875 C 8.285156 -7.757812 8.320312 -7.628906 8.3125 -7.484375 L 7.234375 -0.40625 C 7.203125 -0.25 7.117188 -0.117188 6.984375 -0.015625 C 6.859375 0.078125 6.71875 0.109375 6.5625 0.078125 C 6.382812 0.0546875 6.242188 -0.0195312 6.140625 -0.15625 C 6.046875 -0.289062 6.015625 -0.441406 6.046875 -0.609375 L 6.578125 -4.078125 C 6.179688 -3.398438 5.734375 -2.738281 5.234375 -2.09375 C 4.742188 -1.457031 4.226562 -0.929688 3.6875 -0.515625 C 3.15625 -0.109375 2.625 0.09375 2.09375 0.09375 C 1.988281 0.09375 1.898438 0.0859375 1.828125 0.078125 C 1.242188 -0.00390625 0.851562 -0.378906 0.65625 -1.046875 C 0.507812 -1.566406 0.5 -2.191406 0.625 -2.921875 C 0.757812 -3.660156 1.03125 -4.414062 1.4375 -5.1875 C 1.851562 -5.957031 2.394531 -6.640625 3.0625 -7.234375 C 3.90625 -7.984375 4.75 -8.285156 5.59375 -8.140625 C 5.882812 -8.085938 6.144531 -7.992188 6.375 -7.859375 C 6.613281 -7.734375 6.820312 -7.59375 7 -7.4375 C 7.050781 -7.550781 7.109375 -7.671875 7.171875 -7.796875 C 7.316406 -8.117188 7.550781 -8.234375 7.875 -8.140625 Z M 2 -1.125 C 2.382812 -1.070312 2.976562 -1.453125 3.78125 -2.265625 C 4.59375 -3.085938 5.476562 -4.429688 6.4375 -6.296875 C 6.320312 -6.421875 6.175781 -6.550781 6 -6.6875 C 5.820312 -6.832031 5.617188 -6.921875 5.390625 -6.953125 C 5.328125 -6.960938 5.265625 -6.96875 5.203125 -6.96875 C 4.796875 -6.96875 4.347656 -6.757812 3.859375 -6.34375 C 3.296875 -5.820312 2.84375 -5.238281 2.5 -4.59375 C 2.164062 -3.957031 1.941406 -3.347656 1.828125 -2.765625 C 1.710938 -2.179688 1.703125 -1.722656 1.796875 -1.390625 C 1.816406 -1.359375 1.84375 -1.304688 1.875 -1.234375 C 1.90625 -1.160156 1.945312 -1.125 2 -1.125 Z M 2 -1.125 "/></g></g></g><g fill="#426810" fill-opacity="1"><g transform="translate(129.885563, 18.401988)"><g><path d="M 7.78125 -6.21875 C 7.675781 -5.800781 7.445312 -5.394531 7.09375 -5 C 6.75 -4.613281 6.347656 -4.28125 5.890625 -4 C 5.429688 -3.71875 4.988281 -3.523438 4.5625 -3.421875 C 4.53125 -3.421875 4.5 -3.414062 4.46875 -3.40625 C 4.4375 -3.40625 4.40625 -3.40625 4.375 -3.40625 L 6.921875 -1.046875 C 7.035156 -0.929688 7.097656 -0.785156 7.109375 -0.609375 C 7.117188 -0.441406 7.066406 -0.300781 6.953125 -0.1875 C 6.835938 -0.0625 6.691406 0 6.515625 0 C 6.347656 0 6.207031 -0.0546875 6.09375 -0.171875 L 2.328125 -3.671875 L 1.828125 -0.515625 C 1.773438 -0.171875 1.578125 0 1.234375 0 C 1.203125 0 1.171875 0 1.140625 0 C 0.984375 -0.03125 0.851562 -0.109375 0.75 -0.234375 C 0.65625 -0.367188 0.613281 -0.523438 0.625 -0.703125 L 3.078125 -16.140625 C 3.117188 -16.296875 3.207031 -16.421875 3.34375 -16.515625 C 3.476562 -16.617188 3.628906 -16.65625 3.796875 -16.625 C 3.953125 -16.601562 4.078125 -16.523438 4.171875 -16.390625 C 4.273438 -16.253906 4.3125 -16.101562 4.28125 -15.9375 L 2.671875 -5.875 C 2.941406 -6.195312 3.253906 -6.53125 3.609375 -6.875 C 3.972656 -7.21875 4.351562 -7.515625 4.75 -7.765625 C 5.144531 -8.023438 5.53125 -8.179688 5.90625 -8.234375 C 6.40625 -8.296875 6.832031 -8.179688 7.1875 -7.890625 C 7.738281 -7.441406 7.9375 -6.882812 7.78125 -6.21875 Z M 4.296875 -4.59375 C 4.617188 -4.675781 4.945312 -4.820312 5.28125 -5.03125 C 5.613281 -5.238281 5.90625 -5.472656 6.15625 -5.734375 C 6.40625 -6.003906 6.554688 -6.253906 6.609375 -6.484375 C 6.660156 -6.660156 6.601562 -6.816406 6.4375 -6.953125 C 6.40625 -6.984375 6.359375 -7.007812 6.296875 -7.03125 C 6.242188 -7.0625 6.171875 -7.066406 6.078125 -7.046875 C 5.796875 -7.015625 5.476562 -6.863281 5.125 -6.59375 C 4.78125 -6.332031 4.4375 -6.019531 4.09375 -5.65625 C 3.757812 -5.300781 3.457031 -4.945312 3.1875 -4.59375 C 3.300781 -4.5625 3.445312 -4.539062 3.625 -4.53125 C 3.800781 -4.519531 4.023438 -4.539062 4.296875 -4.59375 Z M 4.296875 -4.59375 "/></g></g></g><g fill="#426810" fill-opacity="1"><g transform="translate(138.192989, 18.401988)"><g><path d="M 6.25 -2.328125 C 6.375 -2.429688 6.515625 -2.476562 6.671875 -2.46875 C 6.835938 -2.457031 6.976562 -2.390625 7.09375 -2.265625 C 7.207031 -2.128906 7.253906 -1.976562 7.234375 -1.8125 C 7.222656 -1.65625 7.148438 -1.519531 7.015625 -1.40625 C 6.660156 -1.101562 6.210938 -0.8125 5.671875 -0.53125 C 5.128906 -0.257812 4.523438 -0.125 3.859375 -0.125 C 3.671875 -0.125 3.476562 -0.140625 3.28125 -0.171875 C 2.375 -0.296875 1.6875 -0.75 1.21875 -1.53125 C 0.9375 -2 0.78125 -2.535156 0.75 -3.140625 C 0.738281 -3.179688 0.734375 -3.226562 0.734375 -3.28125 C 0.734375 -3.28125 0.738281 -3.285156 0.75 -3.296875 C 0.738281 -3.878906 0.84375 -4.488281 1.0625 -5.125 C 1.3125 -5.757812 1.691406 -6.332031 2.203125 -6.84375 C 2.722656 -7.363281 3.332031 -7.765625 4.03125 -8.046875 C 4.519531 -8.234375 4.984375 -8.335938 5.421875 -8.359375 C 5.867188 -8.390625 6.25 -8.320312 6.5625 -8.15625 C 7.125 -7.882812 7.429688 -7.457031 7.484375 -6.875 C 7.515625 -6.457031 7.394531 -6.019531 7.125 -5.5625 C 6.863281 -5.113281 6.472656 -4.6875 5.953125 -4.28125 C 5.160156 -3.695312 4.414062 -3.289062 3.71875 -3.0625 C 3.019531 -2.832031 2.453125 -2.703125 2.015625 -2.671875 C 2.078125 -2.472656 2.148438 -2.296875 2.234375 -2.140625 C 2.503906 -1.679688 2.910156 -1.421875 3.453125 -1.359375 C 4.035156 -1.265625 4.566406 -1.332031 5.046875 -1.5625 C 5.535156 -1.800781 5.9375 -2.054688 6.25 -2.328125 Z M 2.21875 -4.71875 C 2.101562 -4.4375 2.03125 -4.148438 2 -3.859375 C 2.351562 -3.910156 2.816406 -4.03125 3.390625 -4.21875 C 3.960938 -4.40625 4.570312 -4.75 5.21875 -5.25 C 5.613281 -5.539062 5.890625 -5.820312 6.046875 -6.09375 C 6.210938 -6.375 6.296875 -6.601562 6.296875 -6.78125 C 6.273438 -6.8125 6.25 -6.859375 6.21875 -6.921875 C 6.1875 -6.984375 6.113281 -7.039062 6 -7.09375 C 5.914062 -7.144531 5.785156 -7.171875 5.609375 -7.171875 C 5.460938 -7.171875 5.289062 -7.148438 5.09375 -7.109375 C 4.90625 -7.066406 4.695312 -7.003906 4.46875 -6.921875 C 3.9375 -6.710938 3.472656 -6.410156 3.078125 -6.015625 C 2.679688 -5.628906 2.394531 -5.195312 2.21875 -4.71875 Z M 2.21875 -4.71875 "/></g></g></g><g fill="#426810" fill-opacity="1"><g transform="translate(146.403254, 18.401988)"><g/></g></g><g fill="#426810" fill-opacity="1"><g transform="translate(152.986028, 18.401988)"><g><path d="M 7.625 -7.71875 C 7.757812 -7.625 7.835938 -7.492188 7.859375 -7.328125 C 7.878906 -7.160156 7.84375 -7.007812 7.75 -6.875 C 7.65625 -6.75 7.523438 -6.671875 7.359375 -6.640625 C 7.203125 -6.617188 7.054688 -6.65625 6.921875 -6.75 C 6.910156 -6.75 6.796875 -6.789062 6.578125 -6.875 C 6.359375 -6.96875 6.050781 -7 5.65625 -6.96875 C 5.269531 -6.9375 4.828125 -6.742188 4.328125 -6.390625 C 4.066406 -6.210938 3.8125 -5.90625 3.5625 -5.46875 C 3.3125 -5.03125 3.078125 -4.523438 2.859375 -3.953125 C 2.640625 -3.390625 2.441406 -2.820312 2.265625 -2.25 C 2.085938 -1.675781 1.945312 -1.160156 1.84375 -0.703125 C 1.78125 -0.398438 1.585938 -0.25 1.265625 -0.25 C 1.210938 -0.25 1.171875 -0.253906 1.140625 -0.265625 C 0.992188 -0.285156 0.867188 -0.363281 0.765625 -0.5 C 0.671875 -0.632812 0.644531 -0.785156 0.6875 -0.953125 L 1.78125 -8 C 1.789062 -8.15625 1.863281 -8.28125 2 -8.375 C 2.144531 -8.476562 2.296875 -8.519531 2.453125 -8.5 C 2.617188 -8.46875 2.75 -8.382812 2.84375 -8.25 C 2.9375 -8.125 2.976562 -7.984375 2.96875 -7.828125 L 2.75 -6.421875 C 3.039062 -6.859375 3.335938 -7.179688 3.640625 -7.390625 C 4.191406 -7.773438 4.707031 -8.015625 5.1875 -8.109375 C 5.675781 -8.210938 6.097656 -8.226562 6.453125 -8.15625 C 6.816406 -8.09375 7.097656 -8.003906 7.296875 -7.890625 C 7.503906 -7.773438 7.613281 -7.71875 7.625 -7.71875 Z M 7.625 -7.71875 "/></g></g></g><g fill="#426810" fill-opacity="1"><g transform="translate(160.686189, 18.401988)"><g><path d="M 7.265625 -6.3125 C 7.328125 -5.507812 7.273438 -4.796875 7.109375 -4.171875 C 6.941406 -3.554688 6.722656 -3.035156 6.453125 -2.609375 C 6.179688 -2.179688 5.929688 -1.847656 5.703125 -1.609375 C 5.335938 -1.203125 4.945312 -0.890625 4.53125 -0.671875 C 4.113281 -0.453125 3.722656 -0.34375 3.359375 -0.34375 C 2.554688 -0.34375 1.929688 -0.578125 1.484375 -1.046875 C 0.953125 -1.628906 0.722656 -2.519531 0.796875 -3.71875 C 0.847656 -4.507812 1.023438 -5.203125 1.328125 -5.796875 C 1.628906 -6.390625 1.988281 -6.882812 2.40625 -7.28125 C 2.820312 -7.675781 3.226562 -7.96875 3.625 -8.15625 C 4.539062 -8.59375 5.375 -8.601562 6.125 -8.1875 C 6.820312 -7.78125 7.203125 -7.15625 7.265625 -6.3125 Z M 4.828125 -2.421875 C 5.015625 -2.617188 5.210938 -2.882812 5.421875 -3.21875 C 5.628906 -3.5625 5.800781 -3.976562 5.9375 -4.46875 C 6.070312 -4.96875 6.117188 -5.550781 6.078125 -6.21875 C 6.046875 -6.644531 5.859375 -6.953125 5.515625 -7.140625 C 5.347656 -7.234375 5.160156 -7.28125 4.953125 -7.28125 C 4.691406 -7.28125 4.425781 -7.21875 4.15625 -7.09375 C 3.65625 -6.851562 3.1875 -6.429688 2.75 -5.828125 C 2.3125 -5.234375 2.0625 -4.503906 2 -3.640625 C 1.925781 -2.796875 2.046875 -2.207031 2.359375 -1.875 C 2.585938 -1.644531 2.921875 -1.53125 3.359375 -1.53125 C 3.515625 -1.53125 3.722656 -1.601562 3.984375 -1.75 C 4.253906 -1.894531 4.535156 -2.117188 4.828125 -2.421875 Z M 4.828125 -2.421875 "/></g></g></g><g fill="#426810" fill-opacity="1"><g transform="translate(168.580674, 18.401988)"><g><path d="M 7.265625 -6.3125 C 7.328125 -5.507812 7.273438 -4.796875 7.109375 -4.171875 C 6.941406 -3.554688 6.722656 -3.035156 6.453125 -2.609375 C 6.179688 -2.179688 5.929688 -1.847656 5.703125 -1.609375 C 5.335938 -1.203125 4.945312 -0.890625 4.53125 -0.671875 C 4.113281 -0.453125 3.722656 -0.34375 3.359375 -0.34375 C 2.554688 -0.34375 1.929688 -0.578125 1.484375 -1.046875 C 0.953125 -1.628906 0.722656 -2.519531 0.796875 -3.71875 C 0.847656 -4.507812 1.023438 -5.203125 1.328125 -5.796875 C 1.628906 -6.390625 1.988281 -6.882812 2.40625 -7.28125 C 2.820312 -7.675781 3.226562 -7.96875 3.625 -8.15625 C 4.539062 -8.59375 5.375 -8.601562 6.125 -8.1875 C 6.820312 -7.78125 7.203125 -7.15625 7.265625 -6.3125 Z M 4.828125 -2.421875 C 5.015625 -2.617188 5.210938 -2.882812 5.421875 -3.21875 C 5.628906 -3.5625 5.800781 -3.976562 5.9375 -4.46875 C 6.070312 -4.96875 6.117188 -5.550781 6.078125 -6.21875 C 6.046875 -6.644531 5.859375 -6.953125 5.515625 -7.140625 C 5.347656 -7.234375 5.160156 -7.28125 4.953125 -7.28125 C 4.691406 -7.28125 4.425781 -7.21875 4.15625 -7.09375 C 3.65625 -6.851562 3.1875 -6.429688 2.75 -5.828125 C 2.3125 -5.234375 2.0625 -4.503906 2 -3.640625 C 1.925781 -2.796875 2.046875 -2.207031 2.359375 -1.875 C 2.585938 -1.644531 2.921875 -1.53125 3.359375 -1.53125 C 3.515625 -1.53125 3.722656 -1.601562 3.984375 -1.75 C 4.253906 -1.894531 4.535156 -2.117188 4.828125 -2.421875 Z M 4.828125 -2.421875 "/></g></g></g><g fill="#426810" fill-opacity="1"><g transform="translate(176.475158, 18.401988)"><g><path d="M 7 -8.4375 C 7.15625 -8.4375 7.289062 -8.378906 7.40625 -8.265625 C 7.519531 -8.148438 7.578125 -8.007812 7.578125 -7.84375 C 7.578125 -7.664062 7.519531 -7.519531 7.40625 -7.40625 C 7.289062 -7.289062 7.15625 -7.234375 7 -7.234375 L 4.78125 -7.234375 L 3.640625 -0.703125 C 3.578125 -0.359375 3.375 -0.1875 3.03125 -0.1875 C 3 -0.1875 2.96875 -0.195312 2.9375 -0.21875 C 2.78125 -0.238281 2.648438 -0.316406 2.546875 -0.453125 C 2.453125 -0.585938 2.421875 -0.738281 2.453125 -0.90625 L 3.578125 -7.234375 L 1.5 -7.234375 C 1.34375 -7.234375 1.207031 -7.289062 1.09375 -7.40625 C 0.976562 -7.519531 0.921875 -7.664062 0.921875 -7.84375 C 0.921875 -8.007812 0.976562 -8.148438 1.09375 -8.265625 C 1.207031 -8.378906 1.34375 -8.4375 1.5 -8.4375 L 3.796875 -8.4375 L 5.203125 -16.46875 C 5.234375 -16.632812 5.316406 -16.765625 5.453125 -16.859375 C 5.585938 -16.953125 5.738281 -16.984375 5.90625 -16.953125 C 6.0625 -16.921875 6.1875 -16.835938 6.28125 -16.703125 C 6.382812 -16.578125 6.421875 -16.425781 6.390625 -16.25 L 5 -8.4375 Z M 7 -8.4375 "/></g></g></g><g fill="#426810" fill-opacity="1"><g transform="translate(183.762377, 18.401988)"><g/></g></g><g fill="#426810" fill-opacity="1"><g transform="translate(190.345152, 18.401988)"><g><path d="M 7.875 -8.140625 C 8.019531 -8.085938 8.128906 -8 8.203125 -7.875 C 8.285156 -7.757812 8.320312 -7.628906 8.3125 -7.484375 L 7.234375 -0.40625 C 7.203125 -0.25 7.117188 -0.117188 6.984375 -0.015625 C 6.859375 0.078125 6.71875 0.109375 6.5625 0.078125 C 6.382812 0.0546875 6.242188 -0.0195312 6.140625 -0.15625 C 6.046875 -0.289062 6.015625 -0.441406 6.046875 -0.609375 L 6.578125 -4.078125 C 6.179688 -3.398438 5.734375 -2.738281 5.234375 -2.09375 C 4.742188 -1.457031 4.226562 -0.929688 3.6875 -0.515625 C 3.15625 -0.109375 2.625 0.09375 2.09375 0.09375 C 1.988281 0.09375 1.898438 0.0859375 1.828125 0.078125 C 1.242188 -0.00390625 0.851562 -0.378906 0.65625 -1.046875 C 0.507812 -1.566406 0.5 -2.191406 0.625 -2.921875 C 0.757812 -3.660156 1.03125 -4.414062 1.4375 -5.1875 C 1.851562 -5.957031 2.394531 -6.640625 3.0625 -7.234375 C 3.90625 -7.984375 4.75 -8.285156 5.59375 -8.140625 C 5.882812 -8.085938 6.144531 -7.992188 6.375 -7.859375 C 6.613281 -7.734375 6.820312 -7.59375 7 -7.4375 C 7.050781 -7.550781 7.109375 -7.671875 7.171875 -7.796875 C 7.316406 -8.117188 7.550781 -8.234375 7.875 -8.140625 Z M 2 -1.125 C 2.382812 -1.070312 2.976562 -1.453125 3.78125 -2.265625 C 4.59375 -3.085938 5.476562 -4.429688 6.4375 -6.296875 C 6.320312 -6.421875 6.175781 -6.550781 6 -6.6875 C 5.820312 -6.832031 5.617188 -6.921875 5.390625 -6.953125 C 5.328125 -6.960938 5.265625 -6.96875 5.203125 -6.96875 C 4.796875 -6.96875 4.347656 -6.757812 3.859375 -6.34375 C 3.296875 -5.820312 2.84375 -5.238281 2.5 -4.59375 C 2.164062 -3.957031 1.941406 -3.347656 1.828125 -2.765625 C 1.710938 -2.179688 1.703125 -1.722656 1.796875 -1.390625 C 1.816406 -1.359375 1.84375 -1.304688 1.875 -1.234375 C 1.90625 -1.160156 1.945312 -1.125 2 -1.125 Z M 2 -1.125 "/></g></g></g><g fill="#426810" fill-opacity="1"><g transform="translate(199.259843, 18.401988)"><g><path d="M 7.578125 -7.796875 C 7.835938 -7.566406 8.007812 -7.179688 8.09375 -6.640625 C 8.1875 -6.097656 8.210938 -5.46875 8.171875 -4.75 C 8.128906 -4.03125 8.0625 -3.304688 7.96875 -2.578125 C 7.875 -1.847656 7.769531 -1.195312 7.65625 -0.625 C 7.632812 -0.46875 7.554688 -0.335938 7.421875 -0.234375 C 7.285156 -0.140625 7.132812 -0.109375 6.96875 -0.140625 C 6.8125 -0.171875 6.679688 -0.253906 6.578125 -0.390625 C 6.484375 -0.535156 6.453125 -0.6875 6.484375 -0.84375 C 6.648438 -1.789062 6.773438 -2.695312 6.859375 -3.5625 C 6.953125 -4.425781 6.992188 -5.15625 6.984375 -5.75 C 6.972656 -6.351562 6.910156 -6.726562 6.796875 -6.875 C 6.640625 -7.007812 6.460938 -7.050781 6.265625 -7 C 5.890625 -6.90625 5.492188 -6.625 5.078125 -6.15625 C 4.660156 -5.695312 4.242188 -5.132812 3.828125 -4.46875 C 3.410156 -3.800781 3.019531 -3.113281 2.65625 -2.40625 C 2.289062 -1.695312 1.988281 -1.050781 1.75 -0.46875 C 1.65625 -0.21875 1.46875 -0.09375 1.1875 -0.09375 C 1.144531 -0.09375 1.085938 -0.101562 1.015625 -0.125 C 0.867188 -0.164062 0.753906 -0.25 0.671875 -0.375 C 0.597656 -0.507812 0.578125 -0.648438 0.609375 -0.796875 L 1.796875 -7.796875 C 1.816406 -7.960938 1.894531 -8.09375 2.03125 -8.1875 C 2.164062 -8.28125 2.316406 -8.3125 2.484375 -8.28125 C 2.640625 -8.269531 2.765625 -8.191406 2.859375 -8.046875 C 2.960938 -7.910156 3 -7.765625 2.96875 -7.609375 L 2.453125 -4.515625 C 2.773438 -5.066406 3.128906 -5.601562 3.515625 -6.125 C 3.910156 -6.644531 4.3125 -7.085938 4.71875 -7.453125 C 5.132812 -7.816406 5.554688 -8.050781 5.984375 -8.15625 C 6.566406 -8.300781 7.097656 -8.179688 7.578125 -7.796875 Z M 7.578125 -7.796875 "/></g></g></g><g fill="#426810" fill-opacity="1"><g transform="translate(208.441725, 18.401988)"><g><path d="M 8.71875 -16.734375 C 8.882812 -16.703125 9.015625 -16.617188 9.109375 -16.484375 C 9.203125 -16.359375 9.234375 -16.21875 9.203125 -16.0625 L 6.859375 -0.625 C 6.785156 -0.289062 6.582031 -0.125 6.25 -0.125 C 6.21875 -0.125 6.191406 -0.125 6.171875 -0.125 C 5.992188 -0.132812 5.851562 -0.207031 5.75 -0.34375 C 5.65625 -0.488281 5.625 -0.640625 5.65625 -0.796875 L 6.046875 -3.28125 C 5.460938 -2.3125 4.847656 -1.539062 4.203125 -0.96875 C 3.554688 -0.40625 2.957031 -0.125 2.40625 -0.125 C 2.28125 -0.125 2.160156 -0.128906 2.046875 -0.140625 C 1.796875 -0.210938 1.53125 -0.363281 1.25 -0.59375 C 0.976562 -0.832031 0.785156 -1.21875 0.671875 -1.75 C 0.566406 -2.28125 0.632812 -3.023438 0.875 -3.984375 C 1 -4.503906 1.207031 -5.03125 1.5 -5.5625 C 1.789062 -6.09375 2.140625 -6.578125 2.546875 -7.015625 C 2.953125 -7.453125 3.382812 -7.796875 3.84375 -8.046875 C 4.3125 -8.304688 4.769531 -8.425781 5.21875 -8.40625 C 5.539062 -8.382812 5.828125 -8.3125 6.078125 -8.1875 C 6.335938 -8.0625 6.554688 -7.925781 6.734375 -7.78125 L 8.046875 -16.234375 C 8.054688 -16.390625 8.128906 -16.515625 8.265625 -16.609375 C 8.410156 -16.710938 8.5625 -16.753906 8.71875 -16.734375 Z M 2.328125 -1.3125 C 2.523438 -1.257812 2.84375 -1.40625 3.28125 -1.75 C 3.726562 -2.101562 4.21875 -2.664062 4.75 -3.4375 C 5.28125 -4.21875 5.78125 -5.21875 6.25 -6.4375 C 6.195312 -6.488281 6.15625 -6.546875 6.125 -6.609375 C 6.101562 -6.640625 6.019531 -6.738281 5.875 -6.90625 C 5.726562 -7.082031 5.488281 -7.1875 5.15625 -7.21875 C 5.132812 -7.21875 5.117188 -7.21875 5.109375 -7.21875 C 4.742188 -7.21875 4.347656 -7.035156 3.921875 -6.671875 C 3.503906 -6.316406 3.117188 -5.875 2.765625 -5.34375 C 2.410156 -4.8125 2.171875 -4.257812 2.046875 -3.6875 C 1.972656 -3.476562 1.910156 -3.195312 1.859375 -2.84375 C 1.816406 -2.488281 1.820312 -2.160156 1.875 -1.859375 C 1.9375 -1.554688 2.085938 -1.375 2.328125 -1.3125 Z M 2.328125 -1.3125 "/></g></g></g><g fill="#426810" fill-opacity="1"><g transform="translate(216.943475, 18.401988)"><g/></g></g><g fill="#426810" fill-opacity="1"><g transform="translate(223.52625, 18.401988)"><g><path d="M 7.625 -7.71875 C 7.757812 -7.625 7.835938 -7.492188 7.859375 -7.328125 C 7.878906 -7.160156 7.84375 -7.007812 7.75 -6.875 C 7.65625 -6.75 7.523438 -6.671875 7.359375 -6.640625 C 7.203125 -6.617188 7.054688 -6.65625 6.921875 -6.75 C 6.910156 -6.75 6.796875 -6.789062 6.578125 -6.875 C 6.359375 -6.96875 6.050781 -7 5.65625 -6.96875 C 5.269531 -6.9375 4.828125 -6.742188 4.328125 -6.390625 C 4.066406 -6.210938 3.8125 -5.90625 3.5625 -5.46875 C 3.3125 -5.03125 3.078125 -4.523438 2.859375 -3.953125 C 2.640625 -3.390625 2.441406 -2.820312 2.265625 -2.25 C 2.085938 -1.675781 1.945312 -1.160156 1.84375 -0.703125 C 1.78125 -0.398438 1.585938 -0.25 1.265625 -0.25 C 1.210938 -0.25 1.171875 -0.253906 1.140625 -0.265625 C 0.992188 -0.285156 0.867188 -0.363281 0.765625 -0.5 C 0.671875 -0.632812 0.644531 -0.785156 0.6875 -0.953125 L 1.78125 -8 C 1.789062 -8.15625 1.863281 -8.28125 2 -8.375 C 2.144531 -8.476562 2.296875 -8.519531 2.453125 -8.5 C 2.617188 -8.46875 2.75 -8.382812 2.84375 -8.25 C 2.9375 -8.125 2.976562 -7.984375 2.96875 -7.828125 L 2.75 -6.421875 C 3.039062 -6.859375 3.335938 -7.179688 3.640625 -7.390625 C 4.191406 -7.773438 4.707031 -8.015625 5.1875 -8.109375 C 5.675781 -8.210938 6.097656 -8.226562 6.453125 -8.15625 C 6.816406 -8.09375 7.097656 -8.003906 7.296875 -7.890625 C 7.503906 -7.773438 7.613281 -7.71875 7.625 -7.71875 Z M 7.625 -7.71875 "/></g></g></g><g fill="#426810" fill-opacity="1"><g transform="translate(231.226411, 18.401988)"><g><path d="M 2.53125 -8.28125 C 2.6875 -8.25 2.8125 -8.164062 2.90625 -8.03125 C 3.007812 -7.894531 3.046875 -7.742188 3.015625 -7.578125 L 1.71875 -0.265625 C 1.65625 0.078125 1.460938 0.25 1.140625 0.25 C 1.109375 0.25 1.066406 0.25 1.015625 0.25 C 0.859375 0.207031 0.734375 0.117188 0.640625 -0.015625 C 0.554688 -0.148438 0.519531 -0.300781 0.53125 -0.46875 L 1.828125 -7.796875 C 1.859375 -7.960938 1.941406 -8.085938 2.078125 -8.171875 C 2.210938 -8.265625 2.363281 -8.300781 2.53125 -8.28125 Z M 3.015625 -12.96875 C 3.222656 -12.96875 3.40625 -12.894531 3.5625 -12.75 C 3.71875 -12.601562 3.796875 -12.425781 3.796875 -12.21875 C 3.796875 -12.007812 3.71875 -11.828125 3.5625 -11.671875 C 3.40625 -11.515625 3.222656 -11.4375 3.015625 -11.4375 C 2.804688 -11.4375 2.628906 -11.515625 2.484375 -11.671875 C 2.335938 -11.828125 2.265625 -12.007812 2.265625 -12.21875 C 2.265625 -12.425781 2.335938 -12.601562 2.484375 -12.75 C 2.628906 -12.894531 2.804688 -12.96875 3.015625 -12.96875 Z M 3.015625 -12.96875 "/></g></g></g><g fill="#426810" fill-opacity="1"><g transform="translate(234.772859, 18.401988)"><g><path d="M 2.84375 -6.90625 C 2.675781 -6.820312 2.566406 -6.734375 2.515625 -6.640625 C 2.472656 -6.554688 2.453125 -6.472656 2.453125 -6.390625 C 2.398438 -6.128906 2.523438 -5.890625 2.828125 -5.671875 C 3.140625 -5.453125 3.644531 -5.191406 4.34375 -4.890625 C 4.945312 -4.628906 5.398438 -4.347656 5.703125 -4.046875 C 6.015625 -3.742188 6.226562 -3.453125 6.34375 -3.171875 C 6.457031 -2.898438 6.519531 -2.675781 6.53125 -2.5 C 6.582031 -1.800781 6.304688 -1.257812 5.703125 -0.875 C 5.160156 -0.53125 4.554688 -0.359375 3.890625 -0.359375 C 3.578125 -0.359375 3.285156 -0.394531 3.015625 -0.46875 C 1.972656 -0.738281 1.1875 -1.390625 0.65625 -2.421875 C 0.570312 -2.566406 0.554688 -2.722656 0.609375 -2.890625 C 0.660156 -3.054688 0.757812 -3.171875 0.90625 -3.234375 C 1.050781 -3.316406 1.203125 -3.332031 1.359375 -3.28125 C 1.523438 -3.226562 1.640625 -3.128906 1.703125 -2.984375 C 2.085938 -2.253906 2.617188 -1.800781 3.296875 -1.625 C 3.929688 -1.46875 4.515625 -1.554688 5.046875 -1.890625 C 5.265625 -2.023438 5.363281 -2.195312 5.34375 -2.40625 C 5.332031 -2.644531 5.195312 -2.882812 4.9375 -3.125 C 4.675781 -3.375 4.316406 -3.597656 3.859375 -3.796875 C 3.441406 -3.984375 3.015625 -4.191406 2.578125 -4.421875 C 2.148438 -4.660156 1.800781 -4.953125 1.53125 -5.296875 C 1.269531 -5.648438 1.179688 -6.078125 1.265625 -6.578125 C 1.359375 -7.191406 1.695312 -7.644531 2.28125 -7.9375 C 2.769531 -8.195312 3.332031 -8.316406 3.96875 -8.296875 C 4.613281 -8.273438 5.144531 -8.164062 5.5625 -7.96875 C 6.226562 -7.644531 6.722656 -7.28125 7.046875 -6.875 C 7.140625 -6.75 7.175781 -6.601562 7.15625 -6.4375 C 7.132812 -6.28125 7.054688 -6.148438 6.921875 -6.046875 C 6.796875 -5.929688 6.648438 -5.882812 6.484375 -5.90625 C 6.328125 -5.9375 6.195312 -6.015625 6.09375 -6.140625 C 6.019531 -6.222656 5.90625 -6.328125 5.75 -6.453125 C 5.59375 -6.585938 5.359375 -6.726562 5.046875 -6.875 C 4.773438 -7.007812 4.410156 -7.082031 3.953125 -7.09375 C 3.503906 -7.113281 3.132812 -7.050781 2.84375 -6.90625 Z M 2.84375 -6.90625 "/></g></g></g><g fill="#426810" fill-opacity="1"><g transform="translate(242.400135, 18.401988)"><g><path d="M 6.25 -2.328125 C 6.375 -2.429688 6.515625 -2.476562 6.671875 -2.46875 C 6.835938 -2.457031 6.976562 -2.390625 7.09375 -2.265625 C 7.207031 -2.128906 7.253906 -1.976562 7.234375 -1.8125 C 7.222656 -1.65625 7.148438 -1.519531 7.015625 -1.40625 C 6.660156 -1.101562 6.210938 -0.8125 5.671875 -0.53125 C 5.128906 -0.257812 4.523438 -0.125 3.859375 -0.125 C 3.671875 -0.125 3.476562 -0.140625 3.28125 -0.171875 C 2.375 -0.296875 1.6875 -0.75 1.21875 -1.53125 C 0.9375 -2 0.78125 -2.535156 0.75 -3.140625 C 0.738281 -3.179688 0.734375 -3.226562 0.734375 -3.28125 C 0.734375 -3.28125 0.738281 -3.285156 0.75 -3.296875 C 0.738281 -3.878906 0.84375 -4.488281 1.0625 -5.125 C 1.3125 -5.757812 1.691406 -6.332031 2.203125 -6.84375 C 2.722656 -7.363281 3.332031 -7.765625 4.03125 -8.046875 C 4.519531 -8.234375 4.984375 -8.335938 5.421875 -8.359375 C 5.867188 -8.390625 6.25 -8.320312 6.5625 -8.15625 C 7.125 -7.882812 7.429688 -7.457031 7.484375 -6.875 C 7.515625 -6.457031 7.394531 -6.019531 7.125 -5.5625 C 6.863281 -5.113281 6.472656 -4.6875 5.953125 -4.28125 C 5.160156 -3.695312 4.414062 -3.289062 3.71875 -3.0625 C 3.019531 -2.832031 2.453125 -2.703125 2.015625 -2.671875 C 2.078125 -2.472656 2.148438 -2.296875 2.234375 -2.140625 C 2.503906 -1.679688 2.910156 -1.421875 3.453125 -1.359375 C 4.035156 -1.265625 4.566406 -1.332031 5.046875 -1.5625 C 5.535156 -1.800781 5.9375 -2.054688 6.25 -2.328125 Z M 2.21875 -4.71875 C 2.101562 -4.4375 2.03125 -4.148438 2 -3.859375 C 2.351562 -3.910156 2.816406 -4.03125 3.390625 -4.21875 C 3.960938 -4.40625 4.570312 -4.75 5.21875 -5.25 C 5.613281 -5.539062 5.890625 -5.820312 6.046875 -6.09375 C 6.210938 -6.375 6.296875 -6.601562 6.296875 -6.78125 C 6.273438 -6.8125 6.25 -6.859375 6.21875 -6.921875 C 6.1875 -6.984375 6.113281 -7.039062 6 -7.09375 C 5.914062 -7.144531 5.785156 -7.171875 5.609375 -7.171875 C 5.460938 -7.171875 5.289062 -7.148438 5.09375 -7.109375 C 4.90625 -7.066406 4.695312 -7.003906 4.46875 -6.921875 C 3.9375 -6.710938 3.472656 -6.410156 3.078125 -6.015625 C 2.679688 -5.628906 2.394531 -5.195312 2.21875 -4.71875 Z M 2.21875 -4.71875 "/></g></g></g></g></g><g transform="matrix(1, 0, 0, 1, 130, 262)"><g clip-path="url(#9af4d825b0)"><g clip-path="url(#a22b61c390)"><g fill="#545454" fill-opacity="1"><g transform="translate(0.377008, 26.588625)"><g><path d="M 13.53125 -20.078125 C 14.195312 -19.023438 14.625 -17.832031 14.8125 -16.5 C 15 -15.164062 15.015625 -13.8125 14.859375 -12.4375 C 14.703125 -11.070312 14.421875 -9.796875 14.015625 -8.609375 C 13.617188 -7.429688 13.144531 -6.476562 12.59375 -5.75 C 11.675781 -4.5625 10.609375 -3.519531 9.390625 -2.625 C 8.179688 -1.738281 6.914062 -1.046875 5.59375 -0.546875 C 4.269531 -0.046875 2.984375 0.203125 1.734375 0.203125 C 1.515625 0.203125 1.28125 0.191406 1.03125 0.171875 C 0.8125 0.148438 0.625 0.046875 0.46875 -0.140625 C 0.3125 -0.335938 0.253906 -0.554688 0.296875 -0.796875 L 3.734375 -22.578125 C 3.804688 -23.023438 4.050781 -23.257812 4.46875 -23.28125 C 4.539062 -23.28125 4.816406 -23.289062 5.296875 -23.3125 C 5.773438 -23.332031 6.375 -23.3125 7.09375 -23.25 C 7.820312 -23.1875 8.59375 -23.046875 9.40625 -22.828125 C 10.21875 -22.617188 10.984375 -22.289062 11.703125 -21.84375 C 12.429688 -21.394531 13.039062 -20.804688 13.53125 -20.078125 Z M 11.265625 -6.75 C 11.753906 -7.375 12.171875 -8.207031 12.515625 -9.25 C 12.859375 -10.300781 13.09375 -11.425781 13.21875 -12.625 C 13.351562 -13.832031 13.34375 -15.015625 13.1875 -16.171875 C 13.039062 -17.328125 12.6875 -18.328125 12.125 -19.171875 C 11.769531 -19.753906 11.285156 -20.210938 10.671875 -20.546875 C 10.054688 -20.878906 9.40625 -21.128906 8.71875 -21.296875 C 8.03125 -21.460938 7.378906 -21.566406 6.765625 -21.609375 C 6.148438 -21.660156 5.65625 -21.6875 5.28125 -21.6875 L 2.078125 -1.46875 C 3.140625 -1.507812 4.226562 -1.753906 5.34375 -2.203125 C 6.457031 -2.648438 7.523438 -3.265625 8.546875 -4.046875 C 9.578125 -4.828125 10.484375 -5.726562 11.265625 -6.75 Z M 11.265625 -6.75 "/></g></g></g></g><g fill="#545454" fill-opacity="1"><g transform="translate(16.209457, 26.588625)"><g><path d="M 10.484375 -10.625 C 10.660156 -10.488281 10.765625 -10.300781 10.796875 -10.0625 C 10.835938 -9.832031 10.789062 -9.628906 10.65625 -9.453125 C 10.519531 -9.273438 10.335938 -9.171875 10.109375 -9.140625 C 9.890625 -9.109375 9.691406 -9.15625 9.515625 -9.28125 C 9.492188 -9.28125 9.332031 -9.34375 9.03125 -9.46875 C 8.726562 -9.59375 8.3125 -9.628906 7.78125 -9.578125 C 7.25 -9.535156 6.640625 -9.269531 5.953125 -8.78125 C 5.585938 -8.539062 5.234375 -8.117188 4.890625 -7.515625 C 4.546875 -6.910156 4.222656 -6.21875 3.921875 -5.4375 C 3.617188 -4.664062 3.34375 -3.882812 3.09375 -3.09375 C 2.851562 -2.300781 2.664062 -1.59375 2.53125 -0.96875 C 2.445312 -0.539062 2.179688 -0.328125 1.734375 -0.328125 C 1.671875 -0.328125 1.613281 -0.34375 1.5625 -0.375 C 1.363281 -0.394531 1.195312 -0.5 1.0625 -0.6875 C 0.9375 -0.875 0.894531 -1.078125 0.9375 -1.296875 L 2.4375 -10.984375 C 2.457031 -11.210938 2.5625 -11.390625 2.75 -11.515625 C 2.945312 -11.648438 3.15625 -11.707031 3.375 -11.6875 C 3.59375 -11.644531 3.769531 -11.535156 3.90625 -11.359375 C 4.039062 -11.179688 4.097656 -10.976562 4.078125 -10.75 L 3.78125 -8.8125 C 4.175781 -9.414062 4.585938 -9.863281 5.015625 -10.15625 C 5.765625 -10.6875 6.472656 -11.019531 7.140625 -11.15625 C 7.816406 -11.289062 8.398438 -11.3125 8.890625 -11.21875 C 9.378906 -11.132812 9.757812 -11.015625 10.03125 -10.859375 C 10.3125 -10.703125 10.460938 -10.625 10.484375 -10.625 Z M 10.484375 -10.625 "/></g></g></g><g fill="#545454" fill-opacity="1"><g transform="translate(26.79783, 26.588625)"><g><path d="M 8.578125 -3.203125 C 8.765625 -3.335938 8.96875 -3.398438 9.1875 -3.390625 C 9.40625 -3.378906 9.59375 -3.285156 9.75 -3.109375 C 9.90625 -2.929688 9.972656 -2.726562 9.953125 -2.5 C 9.929688 -2.28125 9.832031 -2.09375 9.65625 -1.9375 C 9.164062 -1.507812 8.546875 -1.109375 7.796875 -0.734375 C 7.054688 -0.359375 6.226562 -0.171875 5.3125 -0.171875 C 5.039062 -0.171875 4.773438 -0.191406 4.515625 -0.234375 C 3.265625 -0.410156 2.316406 -1.035156 1.671875 -2.109375 C 1.296875 -2.753906 1.082031 -3.488281 1.03125 -4.3125 C 1.007812 -4.375 1 -4.441406 1 -4.515625 C 1 -4.515625 1.007812 -4.523438 1.03125 -4.546875 C 1.007812 -5.347656 1.15625 -6.179688 1.46875 -7.046875 C 1.800781 -7.921875 2.320312 -8.710938 3.03125 -9.421875 C 3.75 -10.128906 4.585938 -10.675781 5.546875 -11.0625 C 6.210938 -11.320312 6.851562 -11.46875 7.46875 -11.5 C 8.082031 -11.539062 8.597656 -11.445312 9.015625 -11.21875 C 9.796875 -10.84375 10.222656 -10.253906 10.296875 -9.453125 C 10.335938 -8.867188 10.171875 -8.265625 9.796875 -7.640625 C 9.429688 -7.023438 8.894531 -6.4375 8.1875 -5.875 C 7.09375 -5.070312 6.066406 -4.515625 5.109375 -4.203125 C 4.148438 -3.890625 3.367188 -3.710938 2.765625 -3.671875 C 2.859375 -3.410156 2.960938 -3.164062 3.078125 -2.9375 C 3.453125 -2.3125 4.007812 -1.957031 4.75 -1.875 C 5.550781 -1.738281 6.285156 -1.832031 6.953125 -2.15625 C 7.617188 -2.476562 8.160156 -2.828125 8.578125 -3.203125 Z M 3.046875 -6.484375 C 2.890625 -6.097656 2.785156 -5.707031 2.734375 -5.3125 C 3.222656 -5.375 3.863281 -5.535156 4.65625 -5.796875 C 5.445312 -6.054688 6.289062 -6.53125 7.1875 -7.21875 C 7.71875 -7.613281 8.09375 -8 8.3125 -8.375 C 8.539062 -8.757812 8.65625 -9.078125 8.65625 -9.328125 C 8.632812 -9.367188 8.597656 -9.429688 8.546875 -9.515625 C 8.503906 -9.609375 8.40625 -9.6875 8.25 -9.75 C 8.132812 -9.820312 7.957031 -9.859375 7.71875 -9.859375 C 7.519531 -9.859375 7.285156 -9.828125 7.015625 -9.765625 C 6.742188 -9.710938 6.453125 -9.628906 6.140625 -9.515625 C 5.410156 -9.234375 4.769531 -8.820312 4.21875 -8.28125 C 3.675781 -7.75 3.285156 -7.148438 3.046875 -6.484375 Z M 3.046875 -6.484375 "/></g></g></g><g fill="#545454" fill-opacity="1"><g transform="translate(38.087641, 26.588625)"><g><path d="M 10.828125 -11.1875 C 11.023438 -11.125 11.175781 -11.007812 11.28125 -10.84375 C 11.394531 -10.675781 11.441406 -10.492188 11.421875 -10.296875 L 9.953125 -0.5625 C 9.910156 -0.34375 9.800781 -0.164062 9.625 -0.03125 C 9.445312 0.101562 9.242188 0.144531 9.015625 0.09375 C 8.773438 0.0703125 8.585938 -0.03125 8.453125 -0.21875 C 8.316406 -0.40625 8.269531 -0.609375 8.3125 -0.828125 L 9.046875 -5.609375 C 8.492188 -4.671875 7.878906 -3.757812 7.203125 -2.875 C 6.523438 -2 5.816406 -1.273438 5.078125 -0.703125 C 4.335938 -0.140625 3.601562 0.140625 2.875 0.140625 C 2.738281 0.140625 2.613281 0.125 2.5 0.09375 C 1.695312 -0.0078125 1.164062 -0.519531 0.90625 -1.4375 C 0.695312 -2.144531 0.679688 -3.003906 0.859375 -4.015625 C 1.046875 -5.035156 1.421875 -6.070312 1.984375 -7.125 C 2.554688 -8.1875 3.296875 -9.128906 4.203125 -9.953125 C 5.367188 -10.972656 6.53125 -11.382812 7.6875 -11.1875 C 8.082031 -11.125 8.441406 -11.003906 8.765625 -10.828125 C 9.085938 -10.648438 9.375 -10.445312 9.625 -10.21875 C 9.6875 -10.375 9.765625 -10.539062 9.859375 -10.71875 C 10.054688 -11.164062 10.378906 -11.320312 10.828125 -11.1875 Z M 2.734375 -1.53125 C 3.273438 -1.46875 4.097656 -2 5.203125 -3.125 C 6.316406 -4.25 7.535156 -6.09375 8.859375 -8.65625 C 8.703125 -8.832031 8.5 -9.015625 8.25 -9.203125 C 8.007812 -9.390625 7.734375 -9.503906 7.421875 -9.546875 C 7.328125 -9.578125 7.238281 -9.59375 7.15625 -9.59375 C 6.59375 -9.59375 5.976562 -9.300781 5.3125 -8.71875 C 4.53125 -8.007812 3.90625 -7.210938 3.4375 -6.328125 C 2.96875 -5.453125 2.65625 -4.613281 2.5 -3.8125 C 2.34375 -3.007812 2.332031 -2.375 2.46875 -1.90625 C 2.488281 -1.863281 2.519531 -1.789062 2.5625 -1.6875 C 2.613281 -1.582031 2.671875 -1.53125 2.734375 -1.53125 Z M 2.734375 -1.53125 "/></g></g></g><g fill="#545454" fill-opacity="1"><g transform="translate(50.346098, 26.588625)"><g><path d="M 16.171875 -11.359375 C 17.722656 -10.828125 17.921875 -7.296875 16.765625 -0.765625 C 16.703125 -0.296875 16.4375 -0.0625 15.96875 -0.0625 C 15.925781 -0.0625 15.878906 -0.0703125 15.828125 -0.09375 C 15.609375 -0.125 15.429688 -0.234375 15.296875 -0.421875 C 15.160156 -0.609375 15.117188 -0.8125 15.171875 -1.03125 C 15.390625 -2.375 15.5625 -3.671875 15.6875 -4.921875 C 15.8125 -6.179688 15.859375 -7.25 15.828125 -8.125 C 15.804688 -9.007812 15.71875 -9.578125 15.5625 -9.828125 C 15.1875 -9.890625 14.671875 -9.5625 14.015625 -8.84375 C 13.359375 -8.132812 12.648438 -7.09375 11.890625 -5.71875 C 11.128906 -4.351562 10.394531 -2.710938 9.6875 -0.796875 C 9.59375 -0.597656 9.453125 -0.445312 9.265625 -0.34375 C 9.078125 -0.25 8.882812 -0.222656 8.6875 -0.265625 C 8.46875 -0.335938 8.300781 -0.46875 8.1875 -0.65625 C 8.070312 -0.84375 8.035156 -1.035156 8.078125 -1.234375 C 8.347656 -2.503906 8.554688 -3.738281 8.703125 -4.9375 C 8.847656 -6.144531 8.925781 -7.175781 8.9375 -8.03125 C 8.945312 -8.894531 8.875 -9.46875 8.71875 -9.75 C 8.34375 -9.707031 7.894531 -9.410156 7.375 -8.859375 C 6.863281 -8.316406 6.320312 -7.601562 5.75 -6.71875 C 5.1875 -5.84375 4.617188 -4.867188 4.046875 -3.796875 C 3.484375 -2.734375 2.96875 -1.65625 2.5 -0.5625 C 2.4375 -0.382812 2.3125 -0.25 2.125 -0.15625 C 1.9375 -0.0703125 1.738281 -0.0507812 1.53125 -0.09375 C 1.332031 -0.164062 1.175781 -0.285156 1.0625 -0.453125 C 0.957031 -0.617188 0.914062 -0.8125 0.9375 -1.03125 L 2.375 -10.796875 C 2.414062 -11.015625 2.523438 -11.191406 2.703125 -11.328125 C 2.878906 -11.460938 3.082031 -11.503906 3.3125 -11.453125 C 3.550781 -11.429688 3.738281 -11.332031 3.875 -11.15625 C 4.007812 -10.976562 4.054688 -10.765625 4.015625 -10.515625 L 3.34375 -6.046875 C 4.070312 -7.296875 4.742188 -8.285156 5.359375 -9.015625 C 5.972656 -9.753906 6.519531 -10.289062 7 -10.625 C 7.476562 -10.957031 7.882812 -11.171875 8.21875 -11.265625 C 8.550781 -11.367188 8.796875 -11.410156 8.953125 -11.390625 C 9.378906 -11.367188 9.722656 -11.179688 9.984375 -10.828125 C 10.273438 -10.472656 10.453125 -9.914062 10.515625 -9.15625 C 10.585938 -8.394531 10.585938 -7.582031 10.515625 -6.71875 C 11.035156 -7.65625 11.597656 -8.515625 12.203125 -9.296875 C 12.816406 -10.085938 13.457031 -10.6875 14.125 -11.09375 C 14.800781 -11.507812 15.484375 -11.597656 16.171875 -11.359375 Z M 16.171875 -11.359375 "/></g></g></g><g fill="#545454" fill-opacity="1"><g transform="translate(69.218106, 26.588625)"><g><path d="M 13.796875 -23.078125 C 14.015625 -23.078125 14.203125 -23 14.359375 -22.84375 C 14.515625 -22.6875 14.59375 -22.5 14.59375 -22.28125 C 14.59375 -22.039062 14.515625 -21.84375 14.359375 -21.6875 C 14.203125 -21.53125 14.015625 -21.453125 13.796875 -21.453125 L 8.859375 -21.453125 L 5.578125 -1.171875 C 5.515625 -0.703125 5.25 -0.46875 4.78125 -0.46875 C 4.726562 -0.46875 4.679688 -0.476562 4.640625 -0.5 C 4.421875 -0.519531 4.242188 -0.625 4.109375 -0.8125 C 3.972656 -1.007812 3.925781 -1.21875 3.96875 -1.4375 L 7.1875 -21.453125 L 2.5 -21.453125 C 2.257812 -21.453125 2.0625 -21.53125 1.90625 -21.6875 C 1.75 -21.84375 1.671875 -22.039062 1.671875 -22.28125 C 1.671875 -22.5 1.75 -22.6875 1.90625 -22.84375 C 2.0625 -23 2.257812 -23.078125 2.5 -23.078125 Z M 13.796875 -23.078125 "/></g></g></g><g fill="#545454" fill-opacity="1"><g transform="translate(82.044397, 26.588625)"><g><path d="M 10.484375 -10.625 C 10.660156 -10.488281 10.765625 -10.300781 10.796875 -10.0625 C 10.835938 -9.832031 10.789062 -9.628906 10.65625 -9.453125 C 10.519531 -9.273438 10.335938 -9.171875 10.109375 -9.140625 C 9.890625 -9.109375 9.691406 -9.15625 9.515625 -9.28125 C 9.492188 -9.28125 9.332031 -9.34375 9.03125 -9.46875 C 8.726562 -9.59375 8.3125 -9.628906 7.78125 -9.578125 C 7.25 -9.535156 6.640625 -9.269531 5.953125 -8.78125 C 5.585938 -8.539062 5.234375 -8.117188 4.890625 -7.515625 C 4.546875 -6.910156 4.222656 -6.21875 3.921875 -5.4375 C 3.617188 -4.664062 3.34375 -3.882812 3.09375 -3.09375 C 2.851562 -2.300781 2.664062 -1.59375 2.53125 -0.96875 C 2.445312 -0.539062 2.179688 -0.328125 1.734375 -0.328125 C 1.671875 -0.328125 1.613281 -0.34375 1.5625 -0.375 C 1.363281 -0.394531 1.195312 -0.5 1.0625 -0.6875 C 0.9375 -0.875 0.894531 -1.078125 0.9375 -1.296875 L 2.4375 -10.984375 C 2.457031 -11.210938 2.5625 -11.390625 2.75 -11.515625 C 2.945312 -11.648438 3.15625 -11.707031 3.375 -11.6875 C 3.59375 -11.644531 3.769531 -11.535156 3.90625 -11.359375 C 4.039062 -11.179688 4.097656 -10.976562 4.078125 -10.75 L 3.78125 -8.8125 C 4.175781 -9.414062 4.585938 -9.863281 5.015625 -10.15625 C 5.765625 -10.6875 6.472656 -11.019531 7.140625 -11.15625 C 7.816406 -11.289062 8.398438 -11.3125 8.890625 -11.21875 C 9.378906 -11.132812 9.757812 -11.015625 10.03125 -10.859375 C 10.3125 -10.703125 10.460938 -10.625 10.484375 -10.625 Z M 10.484375 -10.625 "/></g></g></g><g fill="#545454" fill-opacity="1"><g transform="translate(92.63277, 26.588625)"><g><path d="M 10.828125 -11.1875 C 11.023438 -11.125 11.175781 -11.007812 11.28125 -10.84375 C 11.394531 -10.675781 11.441406 -10.492188 11.421875 -10.296875 L 9.953125 -0.5625 C 9.910156 -0.34375 9.800781 -0.164062 9.625 -0.03125 C 9.445312 0.101562 9.242188 0.144531 9.015625 0.09375 C 8.773438 0.0703125 8.585938 -0.03125 8.453125 -0.21875 C 8.316406 -0.40625 8.269531 -0.609375 8.3125 -0.828125 L 9.046875 -5.609375 C 8.492188 -4.671875 7.878906 -3.757812 7.203125 -2.875 C 6.523438 -2 5.816406 -1.273438 5.078125 -0.703125 C 4.335938 -0.140625 3.601562 0.140625 2.875 0.140625 C 2.738281 0.140625 2.613281 0.125 2.5 0.09375 C 1.695312 -0.0078125 1.164062 -0.519531 0.90625 -1.4375 C 0.695312 -2.144531 0.679688 -3.003906 0.859375 -4.015625 C 1.046875 -5.035156 1.421875 -6.070312 1.984375 -7.125 C 2.554688 -8.1875 3.296875 -9.128906 4.203125 -9.953125 C 5.367188 -10.972656 6.53125 -11.382812 7.6875 -11.1875 C 8.082031 -11.125 8.441406 -11.003906 8.765625 -10.828125 C 9.085938 -10.648438 9.375 -10.445312 9.625 -10.21875 C 9.6875 -10.375 9.765625 -10.539062 9.859375 -10.71875 C 10.054688 -11.164062 10.378906 -11.320312 10.828125 -11.1875 Z M 2.734375 -1.53125 C 3.273438 -1.46875 4.097656 -2 5.203125 -3.125 C 6.316406 -4.25 7.535156 -6.09375 8.859375 -8.65625 C 8.703125 -8.832031 8.5 -9.015625 8.25 -9.203125 C 8.007812 -9.390625 7.734375 -9.503906 7.421875 -9.546875 C 7.328125 -9.578125 7.238281 -9.59375 7.15625 -9.59375 C 6.59375 -9.59375 5.976562 -9.300781 5.3125 -8.71875 C 4.53125 -8.007812 3.90625 -7.210938 3.4375 -6.328125 C 2.96875 -5.453125 2.65625 -4.613281 2.5 -3.8125 C 2.34375 -3.007812 2.332031 -2.375 2.46875 -1.90625 C 2.488281 -1.863281 2.519531 -1.789062 2.5625 -1.6875 C 2.613281 -1.582031 2.671875 -1.53125 2.734375 -1.53125 Z M 2.734375 -1.53125 "/></g></g></g><g fill="#545454" fill-opacity="1"><g transform="translate(104.891227, 26.588625)"><g><path d="M 3.46875 -11.390625 C 3.695312 -11.347656 3.875 -11.226562 4 -11.03125 C 4.132812 -10.84375 4.179688 -10.640625 4.140625 -10.421875 L 2.375 -0.375 C 2.28125 0.09375 2.007812 0.328125 1.5625 0.328125 C 1.519531 0.328125 1.46875 0.328125 1.40625 0.328125 C 1.175781 0.285156 1 0.171875 0.875 -0.015625 C 0.757812 -0.203125 0.710938 -0.410156 0.734375 -0.640625 L 2.5 -10.71875 C 2.550781 -10.945312 2.671875 -11.117188 2.859375 -11.234375 C 3.046875 -11.359375 3.25 -11.410156 3.46875 -11.390625 Z M 4.140625 -17.84375 C 4.429688 -17.84375 4.679688 -17.738281 4.890625 -17.53125 C 5.109375 -17.332031 5.21875 -17.085938 5.21875 -16.796875 C 5.21875 -16.515625 5.109375 -16.265625 4.890625 -16.046875 C 4.679688 -15.835938 4.429688 -15.734375 4.140625 -15.734375 C 3.847656 -15.734375 3.601562 -15.835938 3.40625 -16.046875 C 3.207031 -16.265625 3.109375 -16.515625 3.109375 -16.796875 C 3.109375 -17.085938 3.207031 -17.332031 3.40625 -17.53125 C 3.601562 -17.738281 3.847656 -17.84375 4.140625 -17.84375 Z M 4.140625 -17.84375 "/></g></g></g><g fill="#545454" fill-opacity="1"><g transform="translate(109.767893, 26.588625)"><g><path d="M 5.21875 -22.921875 C 5.4375 -22.867188 5.613281 -22.753906 5.75 -22.578125 C 5.882812 -22.398438 5.925781 -22.203125 5.875 -21.984375 L 2.5 -0.734375 C 2.4375 -0.265625 2.171875 -0.03125 1.703125 -0.03125 C 1.660156 -0.03125 1.613281 -0.0390625 1.5625 -0.0625 C 1.34375 -0.0820312 1.164062 -0.1875 1.03125 -0.375 C 0.894531 -0.570312 0.84375 -0.78125 0.875 -1 L 4.25 -22.21875 C 4.289062 -22.4375 4.40625 -22.617188 4.59375 -22.765625 C 4.78125 -22.910156 4.988281 -22.960938 5.21875 -22.921875 Z M 5.21875 -22.921875 "/></g></g></g></g></g></svg>