<svg xmlns="http://www.w3.org/2000/svg" xmlns:xlink="http://www.w3.org/1999/xlink" width="500" zoomAndPan="magnify" viewBox="0 0 375 374.999991" height="500" preserveAspectRatio="xMidYMid meet" version="1.0"><defs><clipPath id="839ec6c06d"><path d="M 42 31 L 375 31 L 375 374.25 L 42 374.25 Z M 42 31 " clip-rule="nonzero"/></clipPath></defs><g clip-path="url(#839ec6c06d)"><path fill="#67a516" d="M 222.621094 366.78125 C 144.980469 366.78125 80.058594 312.351562 64.023438 239.605469 C 61.496094 228.109375 60.230469 216.476562 60.222656 204.707031 L 60.222656 204.558594 C 60.214844 189.367188 62.300781 174.46875 66.476562 159.863281 C 66.476562 159.863281 84.335938 104.25 155.910156 72.820312 C 155.910156 72.820312 95.089844 113.652344 78.503906 160.101562 C 116.984375 159.199219 183.714844 141.832031 226.03125 42.375 C 227.382812 39.203125 228.707031 35.941406 230.011719 32.597656 C 224.621094 32.085938 219.164062 31.832031 213.636719 31.828125 C 118.980469 31.828125 42.242188 108.480469 42.242188 203.03125 C 42.242188 207.792969 42.4375 212.507812 42.820312 217.175781 C 43.429688 224.644531 44.527344 232.039062 46.109375 239.359375 C 62.785156 316.457031 131.460938 374.238281 213.636719 374.238281 C 288.757812 374.238281 352.59375 325.960938 375.738281 258.769531 C 353.398438 321.707031 293.28125 366.78125 222.621094 366.78125 Z M 222.621094 366.78125 " fill-opacity="1" fill-rule="nonzero"/></g><path fill="#67a516" d="M 127.890625 312.035156 C 153.367188 279.335938 118.699219 236.113281 118.699219 236.113281 C 73.90625 283.042969 116.585938 324.226562 116.585938 324.226562 C 116.585938 324.226562 105.1875 294.933594 111.113281 266.417969 C 111.113281 266.417969 112.613281 305.007812 119.484375 320.570312 C 125.316406 334.117188 133.824219 347.78125 142.808594 347.203125 C 142.808594 347.203125 124.839844 324.878906 127.890625 312.039062 Z M 127.890625 312.035156 " fill-opacity="1" fill-rule="nonzero"/><path fill="#67a516" d="M 50.050781 92.75 C 0.0234375 71.539062 12.105469 -0.0078125 12.105469 -0.0078125 C 93.339844 25.183594 70.765625 99.511719 70.765625 99.511719 C 70.765625 99.511719 65.121094 58.71875 40.136719 29.847656 C 40.136719 29.847656 63.046875 74.976562 65.121094 97.164062 C 67.089844 116.386719 66.066406 137.449219 55.421875 142.507812 C 55.421875 142.507812 61.730469 105.515625 50.054688 92.753906 Z M 50.050781 92.75 " fill-opacity="1" fill-rule="nonzero"/></svg>